G04 EAGLE Gerber RS-274X export*
G75*
%MOMM*%
%FSLAX34Y34*%
%LPD*%
%INSilkscreen Top*%
%IPPOS*%
%AMOC8*
5,1,8,0,0,1.08239X$1,22.5*%
G01*
%ADD10C,0.076200*%
%ADD11C,0.127000*%
%ADD12C,0.254000*%
%ADD13C,0.200000*%
%ADD14C,0.718419*%
%ADD15C,0.152400*%
%ADD16R,0.300000X2.000000*%


D10*
X54737Y52705D02*
X54737Y60077D01*
X58423Y60077D01*
X59652Y58849D01*
X59652Y56391D01*
X58423Y55162D01*
X54737Y55162D01*
X57194Y55162D02*
X59652Y52705D01*
X65907Y60077D02*
X67136Y58849D01*
X65907Y60077D02*
X63450Y60077D01*
X62221Y58849D01*
X62221Y57620D01*
X63450Y56391D01*
X65907Y56391D01*
X67136Y55162D01*
X67136Y53934D01*
X65907Y52705D01*
X63450Y52705D01*
X62221Y53934D01*
X72163Y52705D02*
X72163Y60077D01*
X74620Y60077D02*
X69705Y60077D01*
X99739Y301625D02*
X106009Y301625D01*
X107577Y300057D01*
X107577Y296922D01*
X106009Y295354D01*
X99739Y295354D01*
X98171Y296922D01*
X98171Y300057D01*
X99739Y301625D01*
X101306Y298490D02*
X98171Y295354D01*
X99739Y292270D02*
X104442Y292270D01*
X99739Y292270D02*
X98171Y290702D01*
X99739Y289134D01*
X98171Y287567D01*
X99739Y285999D01*
X104442Y285999D01*
X104442Y282915D02*
X104442Y281347D01*
X98171Y281347D01*
X98171Y282915D02*
X98171Y279779D01*
X107577Y281347D02*
X109145Y281347D01*
X104442Y276678D02*
X104442Y275110D01*
X98171Y275110D01*
X98171Y273543D02*
X98171Y276678D01*
X107577Y275110D02*
X109145Y275110D01*
X104442Y268873D02*
X104442Y264170D01*
X104442Y268873D02*
X102874Y270441D01*
X99739Y270441D01*
X98171Y268873D01*
X98171Y264170D01*
X200527Y507182D02*
X207899Y507182D01*
X200527Y504725D02*
X200527Y509639D01*
X200527Y512209D02*
X207899Y517124D01*
X207899Y512209D02*
X200527Y517124D01*
X200527Y519693D02*
X207899Y519693D01*
X207899Y523379D01*
X206670Y524608D01*
X201755Y524608D01*
X200527Y523379D01*
X200527Y519693D01*
X166881Y60077D02*
X168110Y58849D01*
X166881Y60077D02*
X164424Y60077D01*
X163195Y58849D01*
X163195Y57620D01*
X164424Y56391D01*
X166881Y56391D01*
X168110Y55162D01*
X168110Y53934D01*
X166881Y52705D01*
X164424Y52705D01*
X163195Y53934D01*
X170679Y52705D02*
X170679Y60077D01*
X173137Y55162D02*
X170679Y52705D01*
X173137Y55162D02*
X175594Y52705D01*
X175594Y60077D01*
X200527Y477547D02*
X207899Y477547D01*
X200527Y477547D02*
X200527Y481233D01*
X201755Y482461D01*
X204213Y482461D01*
X205442Y481233D01*
X205442Y477547D01*
X205442Y480004D02*
X207899Y482461D01*
X207899Y489946D02*
X200527Y485031D01*
X200527Y489946D02*
X207899Y485031D01*
X207899Y492515D02*
X200527Y492515D01*
X207899Y492515D02*
X207899Y496201D01*
X206670Y497430D01*
X201755Y497430D01*
X200527Y496201D01*
X200527Y492515D01*
X200527Y460269D02*
X207899Y460269D01*
X204213Y456583D02*
X200527Y460269D01*
X204213Y461498D02*
X204213Y456583D01*
X201755Y466524D02*
X200527Y468982D01*
X201755Y466524D02*
X204213Y464067D01*
X206670Y464067D01*
X207899Y465296D01*
X207899Y467753D01*
X206670Y468982D01*
X205442Y468982D01*
X204213Y467753D01*
X204213Y464067D01*
X207899Y434869D02*
X200527Y434869D01*
X204213Y431183D01*
X204213Y436098D01*
X200527Y438667D02*
X200527Y443582D01*
X200527Y438667D02*
X204213Y438667D01*
X202984Y441124D01*
X202984Y442353D01*
X204213Y443582D01*
X206670Y443582D01*
X207899Y442353D01*
X207899Y439896D01*
X206670Y438667D01*
X207899Y409469D02*
X200527Y409469D01*
X204213Y405783D01*
X204213Y410698D01*
X207899Y416953D02*
X200527Y416953D01*
X204213Y413267D01*
X204213Y418182D01*
X207899Y384069D02*
X200527Y384069D01*
X204213Y380383D01*
X204213Y385298D01*
X201755Y387867D02*
X200527Y389096D01*
X200527Y391553D01*
X201755Y392782D01*
X202984Y392782D01*
X204213Y391553D01*
X204213Y390324D01*
X204213Y391553D02*
X205442Y392782D01*
X206670Y392782D01*
X207899Y391553D01*
X207899Y389096D01*
X206670Y387867D01*
X200527Y355195D02*
X201755Y353967D01*
X200527Y355195D02*
X200527Y357653D01*
X201755Y358882D01*
X202984Y358882D01*
X204213Y357653D01*
X204213Y356424D01*
X204213Y357653D02*
X205442Y358882D01*
X206670Y358882D01*
X207899Y357653D01*
X207899Y355195D01*
X206670Y353967D01*
X201755Y361451D02*
X200527Y362680D01*
X200527Y365137D01*
X201755Y366366D01*
X202984Y366366D01*
X204213Y365137D01*
X204213Y363908D01*
X204213Y365137D02*
X205442Y366366D01*
X206670Y366366D01*
X207899Y365137D01*
X207899Y362680D01*
X206670Y361451D01*
X207899Y331061D02*
X200527Y331061D01*
X202984Y333519D01*
X200527Y335976D01*
X207899Y335976D01*
X207899Y338546D02*
X207899Y341003D01*
X207899Y339774D02*
X200527Y339774D01*
X200527Y338546D02*
X200527Y341003D01*
X200527Y304183D02*
X207899Y304183D01*
X202984Y306640D02*
X200527Y304183D01*
X202984Y306640D02*
X200527Y309098D01*
X207899Y309098D01*
X200527Y312896D02*
X200527Y315353D01*
X200527Y312896D02*
X201755Y311667D01*
X206670Y311667D01*
X207899Y312896D01*
X207899Y315353D01*
X206670Y316582D01*
X201755Y316582D01*
X200527Y315353D01*
X201755Y279769D02*
X200527Y278541D01*
X200527Y276083D01*
X201755Y274855D01*
X202984Y274855D01*
X204213Y276083D01*
X204213Y278541D01*
X205442Y279769D01*
X206670Y279769D01*
X207899Y278541D01*
X207899Y276083D01*
X206670Y274855D01*
X200527Y286025D02*
X201755Y287254D01*
X200527Y286025D02*
X200527Y283567D01*
X201755Y282339D01*
X206670Y282339D01*
X207899Y283567D01*
X207899Y286025D01*
X206670Y287254D01*
X207899Y289823D02*
X200527Y289823D01*
X205442Y289823D02*
X200527Y294738D01*
X204213Y291052D02*
X207899Y294738D01*
X200527Y256602D02*
X202984Y254145D01*
X200527Y256602D02*
X207899Y256602D01*
X207899Y254145D02*
X207899Y259060D01*
X201755Y261629D02*
X200527Y262858D01*
X200527Y265315D01*
X201755Y266544D01*
X202984Y266544D01*
X204213Y265315D01*
X204213Y264086D01*
X204213Y265315D02*
X205442Y266544D01*
X206670Y266544D01*
X207899Y265315D01*
X207899Y262858D01*
X206670Y261629D01*
X200527Y231456D02*
X202984Y228999D01*
X200527Y231456D02*
X207899Y231456D01*
X207899Y228999D02*
X207899Y233914D01*
X207899Y236483D02*
X207899Y241398D01*
X207899Y236483D02*
X202984Y241398D01*
X201755Y241398D01*
X200527Y240169D01*
X200527Y237712D01*
X201755Y236483D01*
X200527Y205548D02*
X202984Y203091D01*
X200527Y205548D02*
X207899Y205548D01*
X207899Y203091D02*
X207899Y208006D01*
X202984Y210575D02*
X200527Y213032D01*
X207899Y213032D01*
X207899Y210575D02*
X207899Y215490D01*
X200527Y179386D02*
X202984Y176929D01*
X200527Y179386D02*
X207899Y179386D01*
X207899Y176929D02*
X207899Y181844D01*
X206670Y184413D02*
X201755Y184413D01*
X200527Y185642D01*
X200527Y188099D01*
X201755Y189328D01*
X206670Y189328D01*
X207899Y188099D01*
X207899Y185642D01*
X206670Y184413D01*
X201755Y189328D01*
X207899Y156940D02*
X206670Y155711D01*
X207899Y156940D02*
X207899Y159397D01*
X206670Y160626D01*
X201755Y160626D01*
X200527Y159397D01*
X200527Y156940D01*
X201755Y155711D01*
X202984Y155711D01*
X204213Y156940D01*
X204213Y160626D01*
X200527Y135226D02*
X201755Y132768D01*
X204213Y130311D01*
X206670Y130311D01*
X207899Y131540D01*
X207899Y133997D01*
X206670Y135226D01*
X205442Y135226D01*
X204213Y133997D01*
X204213Y130311D01*
X200527Y109318D02*
X200527Y104403D01*
X204213Y104403D01*
X202984Y106860D01*
X202984Y108089D01*
X204213Y109318D01*
X206670Y109318D01*
X207899Y108089D01*
X207899Y105632D01*
X206670Y104403D01*
X201755Y76823D02*
X200527Y75595D01*
X200527Y73137D01*
X201755Y71909D01*
X206670Y71909D01*
X207899Y73137D01*
X207899Y75595D01*
X206670Y76823D01*
X204213Y76823D01*
X204213Y74366D01*
X207899Y79393D02*
X200527Y79393D01*
X207899Y84308D01*
X200527Y84308D01*
X200527Y86877D02*
X207899Y86877D01*
X207899Y90563D01*
X206670Y91792D01*
X201755Y91792D01*
X200527Y90563D01*
X200527Y86877D01*
X200527Y38262D02*
X205442Y38262D01*
X207899Y40720D01*
X205442Y43177D01*
X200527Y43177D01*
X200527Y45747D02*
X207899Y45747D01*
X200527Y45747D02*
X200527Y49433D01*
X201755Y50661D01*
X202984Y50661D01*
X204213Y49433D01*
X205442Y50661D01*
X206670Y50661D01*
X207899Y49433D01*
X207899Y45747D01*
X204213Y45747D02*
X204213Y49433D01*
X206670Y53231D02*
X200527Y53231D01*
X206670Y53231D02*
X207899Y54459D01*
X207899Y56917D01*
X206670Y58146D01*
X200527Y58146D01*
X200527Y64401D02*
X201755Y65630D01*
X200527Y64401D02*
X200527Y61944D01*
X201755Y60715D01*
X202984Y60715D01*
X204213Y61944D01*
X204213Y64401D01*
X205442Y65630D01*
X206670Y65630D01*
X207899Y64401D01*
X207899Y61944D01*
X206670Y60715D01*
X33909Y39751D02*
X26537Y39751D01*
X26537Y43437D01*
X27765Y44666D01*
X30223Y44666D01*
X31452Y43437D01*
X31452Y39751D01*
X31452Y42208D02*
X33909Y44666D01*
X33909Y47235D02*
X28994Y47235D01*
X26537Y49693D01*
X28994Y52150D01*
X33909Y52150D01*
X30223Y52150D02*
X30223Y47235D01*
X26537Y54719D02*
X33909Y54719D01*
X31452Y57177D01*
X33909Y59634D01*
X26537Y59634D01*
X27765Y68707D02*
X26537Y69936D01*
X26537Y72393D01*
X27765Y73622D01*
X28994Y73622D01*
X30223Y72393D01*
X30223Y71164D01*
X30223Y72393D02*
X31452Y73622D01*
X32680Y73622D01*
X33909Y72393D01*
X33909Y69936D01*
X32680Y68707D01*
X31452Y76191D02*
X26537Y76191D01*
X31452Y76191D02*
X33909Y78649D01*
X31452Y81106D01*
X26537Y81106D01*
X27765Y83675D02*
X26537Y84904D01*
X26537Y87361D01*
X27765Y88590D01*
X28994Y88590D01*
X30223Y87361D01*
X30223Y86133D01*
X30223Y87361D02*
X31452Y88590D01*
X32680Y88590D01*
X33909Y87361D01*
X33909Y84904D01*
X32680Y83675D01*
X33909Y94615D02*
X26537Y94615D01*
X26537Y98301D01*
X27765Y99530D01*
X30223Y99530D01*
X31452Y98301D01*
X31452Y94615D01*
X31452Y97072D02*
X33909Y99530D01*
X26537Y105785D02*
X27765Y107014D01*
X26537Y105785D02*
X26537Y103328D01*
X27765Y102099D01*
X28994Y102099D01*
X30223Y103328D01*
X30223Y105785D01*
X31452Y107014D01*
X32680Y107014D01*
X33909Y105785D01*
X33909Y103328D01*
X32680Y102099D01*
X33909Y112041D02*
X26537Y112041D01*
X26537Y114498D02*
X26537Y109583D01*
X28994Y119761D02*
X33909Y119761D01*
X28994Y119761D02*
X26537Y122218D01*
X28994Y124676D01*
X33909Y124676D01*
X30223Y124676D02*
X30223Y119761D01*
X33909Y127245D02*
X26537Y127245D01*
X26537Y130931D01*
X27765Y132160D01*
X30223Y132160D01*
X31452Y130931D01*
X31452Y127245D01*
X31452Y129703D02*
X33909Y132160D01*
X26537Y134729D02*
X26537Y139644D01*
X26537Y134729D02*
X33909Y134729D01*
X33909Y139644D01*
X30223Y137187D02*
X30223Y134729D01*
X33909Y142213D02*
X26537Y142213D01*
X26537Y147128D01*
X30223Y144671D02*
X30223Y142213D01*
X26537Y153927D02*
X27765Y155156D01*
X26537Y153927D02*
X26537Y151470D01*
X27765Y150241D01*
X32680Y150241D01*
X33909Y151470D01*
X33909Y153927D01*
X32680Y155156D01*
X30223Y155156D01*
X30223Y152698D01*
X33909Y157725D02*
X26537Y157725D01*
X33909Y162640D01*
X26537Y162640D01*
X26537Y165209D02*
X33909Y165209D01*
X33909Y168895D01*
X32680Y170124D01*
X27765Y170124D01*
X26537Y168895D01*
X26537Y165209D01*
X26537Y179581D02*
X27765Y180810D01*
X26537Y179581D02*
X26537Y177124D01*
X27765Y175895D01*
X28994Y175895D01*
X30223Y177124D01*
X30223Y179581D01*
X31452Y180810D01*
X32680Y180810D01*
X33909Y179581D01*
X33909Y177124D01*
X32680Y175895D01*
X26537Y187065D02*
X27765Y188294D01*
X26537Y187065D02*
X26537Y184608D01*
X27765Y183379D01*
X32680Y183379D01*
X33909Y184608D01*
X33909Y187065D01*
X32680Y188294D01*
X33909Y190863D02*
X26537Y190863D01*
X33909Y190863D02*
X33909Y195778D01*
X26537Y202949D02*
X27765Y204178D01*
X26537Y202949D02*
X26537Y200492D01*
X27765Y199263D01*
X28994Y199263D01*
X30223Y200492D01*
X30223Y202949D01*
X31452Y204178D01*
X32680Y204178D01*
X33909Y202949D01*
X33909Y200492D01*
X32680Y199263D01*
X33909Y206747D02*
X26537Y206747D01*
X33909Y206747D02*
X33909Y210433D01*
X32680Y211662D01*
X27765Y211662D01*
X26537Y210433D01*
X26537Y206747D01*
X28994Y214231D02*
X33909Y214231D01*
X28994Y214231D02*
X26537Y216689D01*
X28994Y219146D01*
X33909Y219146D01*
X30223Y219146D02*
X30223Y214231D01*
X28994Y227203D02*
X33909Y227203D01*
X28994Y227203D02*
X26537Y229660D01*
X28994Y232118D01*
X33909Y232118D01*
X30223Y232118D02*
X30223Y227203D01*
X32680Y234687D02*
X27765Y234687D01*
X26537Y235916D01*
X26537Y238373D01*
X27765Y239602D01*
X32680Y239602D01*
X33909Y238373D01*
X33909Y235916D01*
X32680Y234687D01*
X27765Y239602D01*
X28994Y253111D02*
X33909Y253111D01*
X28994Y253111D02*
X26537Y255568D01*
X28994Y258026D01*
X33909Y258026D01*
X30223Y258026D02*
X30223Y253111D01*
X28994Y260595D02*
X26537Y263053D01*
X33909Y263053D01*
X33909Y265510D02*
X33909Y260595D01*
X33909Y278511D02*
X28994Y278511D01*
X26537Y280968D01*
X28994Y283426D01*
X33909Y283426D01*
X30223Y283426D02*
X30223Y278511D01*
X33909Y285995D02*
X33909Y290910D01*
X33909Y285995D02*
X28994Y290910D01*
X27765Y290910D01*
X26537Y289681D01*
X26537Y287224D01*
X27765Y285995D01*
X28994Y302895D02*
X33909Y302895D01*
X28994Y302895D02*
X26537Y305352D01*
X28994Y307810D01*
X33909Y307810D01*
X30223Y307810D02*
X30223Y302895D01*
X27765Y310379D02*
X26537Y311608D01*
X26537Y314065D01*
X27765Y315294D01*
X28994Y315294D01*
X30223Y314065D01*
X30223Y312837D01*
X30223Y314065D02*
X31452Y315294D01*
X32680Y315294D01*
X33909Y314065D01*
X33909Y311608D01*
X32680Y310379D01*
X33909Y329057D02*
X28994Y329057D01*
X26537Y331514D01*
X28994Y333972D01*
X33909Y333972D01*
X30223Y333972D02*
X30223Y329057D01*
X33909Y340227D02*
X26537Y340227D01*
X30223Y336541D01*
X30223Y341456D01*
X28994Y354965D02*
X33909Y354965D01*
X28994Y354965D02*
X26537Y357422D01*
X28994Y359880D01*
X33909Y359880D01*
X30223Y359880D02*
X30223Y354965D01*
X26537Y362449D02*
X26537Y367364D01*
X26537Y362449D02*
X30223Y362449D01*
X28994Y364907D01*
X28994Y366135D01*
X30223Y367364D01*
X32680Y367364D01*
X33909Y366135D01*
X33909Y363678D01*
X32680Y362449D01*
X33909Y379349D02*
X28994Y379349D01*
X26537Y381806D01*
X28994Y384264D01*
X33909Y384264D01*
X30223Y384264D02*
X30223Y379349D01*
X27765Y389291D02*
X26537Y391748D01*
X27765Y389291D02*
X30223Y386833D01*
X32680Y386833D01*
X33909Y388062D01*
X33909Y390519D01*
X32680Y391748D01*
X31452Y391748D01*
X30223Y390519D01*
X30223Y386833D01*
X27765Y405511D02*
X26537Y406740D01*
X26537Y409197D01*
X27765Y410426D01*
X28994Y410426D01*
X30223Y409197D01*
X30223Y407968D01*
X30223Y409197D02*
X31452Y410426D01*
X32680Y410426D01*
X33909Y409197D01*
X33909Y406740D01*
X32680Y405511D01*
X26537Y412995D02*
X26537Y417910D01*
X26537Y412995D02*
X30223Y412995D01*
X28994Y415453D01*
X28994Y416681D01*
X30223Y417910D01*
X32680Y417910D01*
X33909Y416681D01*
X33909Y414224D01*
X32680Y412995D01*
X27765Y430403D02*
X26537Y431632D01*
X26537Y434089D01*
X27765Y435318D01*
X28994Y435318D01*
X30223Y434089D01*
X30223Y432860D01*
X30223Y434089D02*
X31452Y435318D01*
X32680Y435318D01*
X33909Y434089D01*
X33909Y431632D01*
X32680Y430403D01*
X27765Y440345D02*
X26537Y442802D01*
X27765Y440345D02*
X30223Y437887D01*
X32680Y437887D01*
X33909Y439116D01*
X33909Y441573D01*
X32680Y442802D01*
X31452Y442802D01*
X30223Y441573D01*
X30223Y437887D01*
X27765Y456057D02*
X26537Y457286D01*
X26537Y459743D01*
X27765Y460972D01*
X28994Y460972D01*
X30223Y459743D01*
X30223Y458514D01*
X30223Y459743D02*
X31452Y460972D01*
X32680Y460972D01*
X33909Y459743D01*
X33909Y457286D01*
X32680Y456057D01*
X26537Y463541D02*
X26537Y468456D01*
X27765Y468456D01*
X32680Y463541D01*
X33909Y463541D01*
X27765Y480949D02*
X26537Y482178D01*
X26537Y484635D01*
X27765Y485864D01*
X28994Y485864D01*
X30223Y484635D01*
X30223Y483406D01*
X30223Y484635D02*
X31452Y485864D01*
X32680Y485864D01*
X33909Y484635D01*
X33909Y482178D01*
X32680Y480949D01*
X27765Y488433D02*
X26537Y489662D01*
X26537Y492119D01*
X27765Y493348D01*
X28994Y493348D01*
X30223Y492119D01*
X31452Y493348D01*
X32680Y493348D01*
X33909Y492119D01*
X33909Y489662D01*
X32680Y488433D01*
X31452Y488433D01*
X30223Y489662D01*
X28994Y488433D01*
X27765Y488433D01*
X30223Y489662D02*
X30223Y492119D01*
X27765Y506095D02*
X26537Y507324D01*
X26537Y509781D01*
X27765Y511010D01*
X28994Y511010D01*
X30223Y509781D01*
X30223Y508552D01*
X30223Y509781D02*
X31452Y511010D01*
X32680Y511010D01*
X33909Y509781D01*
X33909Y507324D01*
X32680Y506095D01*
X32680Y513579D02*
X33909Y514808D01*
X33909Y517265D01*
X32680Y518494D01*
X27765Y518494D01*
X26537Y517265D01*
X26537Y514808D01*
X27765Y513579D01*
X28994Y513579D01*
X30223Y514808D01*
X30223Y518494D01*
X120017Y258451D02*
X121246Y257223D01*
X120017Y258451D02*
X117560Y258451D01*
X116331Y257223D01*
X116331Y255994D01*
X117560Y254765D01*
X120017Y254765D01*
X121246Y253536D01*
X121246Y252308D01*
X120017Y251079D01*
X117560Y251079D01*
X116331Y252308D01*
X123815Y251079D02*
X123815Y258451D01*
X126273Y253536D02*
X123815Y251079D01*
X126273Y253536D02*
X128730Y251079D01*
X128730Y258451D01*
X131299Y258451D02*
X131299Y251079D01*
X134985Y251079D01*
X136214Y252308D01*
X136214Y257223D01*
X134985Y258451D01*
X131299Y258451D01*
X138783Y251079D02*
X141241Y251079D01*
X140012Y251079D02*
X140012Y258451D01*
X138783Y258451D02*
X141241Y258451D01*
X145002Y258451D02*
X147459Y258451D01*
X145002Y258451D02*
X143773Y257223D01*
X143773Y252308D01*
X145002Y251079D01*
X147459Y251079D01*
X148688Y252308D01*
X148688Y257223D01*
X147459Y258451D01*
X118751Y231569D02*
X117522Y232797D01*
X115065Y232797D01*
X113836Y231569D01*
X113836Y230340D01*
X115065Y229111D01*
X117522Y229111D01*
X118751Y227882D01*
X118751Y226654D01*
X117522Y225425D01*
X115065Y225425D01*
X113836Y226654D01*
X121320Y225425D02*
X121320Y232797D01*
X123778Y227882D02*
X121320Y225425D01*
X123778Y227882D02*
X126235Y225425D01*
X126235Y232797D01*
X132491Y232797D02*
X133719Y231569D01*
X132491Y232797D02*
X130033Y232797D01*
X128805Y231569D01*
X128805Y226654D01*
X130033Y225425D01*
X132491Y225425D01*
X133719Y226654D01*
X136289Y225425D02*
X136289Y232797D01*
X136289Y225425D02*
X141204Y225425D01*
X143773Y225425D02*
X143773Y232797D01*
X143773Y227882D02*
X148688Y232797D01*
X145002Y229111D02*
X148688Y225425D01*
X132491Y207397D02*
X133719Y206169D01*
X132491Y207397D02*
X130033Y207397D01*
X128805Y206169D01*
X128805Y204940D01*
X130033Y203711D01*
X132491Y203711D01*
X133719Y202482D01*
X133719Y201254D01*
X132491Y200025D01*
X130033Y200025D01*
X128805Y201254D01*
X136289Y200025D02*
X136289Y207397D01*
X138746Y202482D02*
X136289Y200025D01*
X138746Y202482D02*
X141204Y200025D01*
X141204Y207397D01*
X145002Y207397D02*
X147459Y207397D01*
X145002Y207397D02*
X143773Y206169D01*
X143773Y201254D01*
X145002Y200025D01*
X147459Y200025D01*
X148688Y201254D01*
X148688Y206169D01*
X147459Y207397D01*
X128805Y182251D02*
X128805Y174879D01*
X128805Y182251D02*
X132491Y182251D01*
X133719Y181023D01*
X133719Y178565D01*
X132491Y177336D01*
X128805Y177336D01*
X131262Y177336D02*
X133719Y174879D01*
X139975Y182251D02*
X141204Y181023D01*
X139975Y182251D02*
X137517Y182251D01*
X136289Y181023D01*
X136289Y179794D01*
X137517Y178565D01*
X139975Y178565D01*
X141204Y177336D01*
X141204Y176108D01*
X139975Y174879D01*
X137517Y174879D01*
X136289Y176108D01*
X146230Y174879D02*
X146230Y182251D01*
X143773Y182251D02*
X148688Y182251D01*
X132491Y157105D02*
X133719Y155877D01*
X132491Y157105D02*
X130033Y157105D01*
X128805Y155877D01*
X128805Y150962D01*
X130033Y149733D01*
X132491Y149733D01*
X133719Y150962D01*
X133719Y153419D01*
X131262Y153419D01*
X136289Y149733D02*
X136289Y157105D01*
X141204Y149733D01*
X141204Y157105D01*
X143773Y157105D02*
X143773Y149733D01*
X147459Y149733D01*
X148688Y150962D01*
X148688Y155877D01*
X147459Y157105D01*
X143773Y157105D01*
X120777Y342673D02*
X113405Y342673D01*
X120777Y347587D01*
X113405Y347587D01*
X113405Y350157D02*
X120777Y350157D01*
X113405Y350157D02*
X113405Y355072D01*
X117091Y352614D02*
X117091Y350157D01*
X113405Y361327D02*
X114633Y362556D01*
X113405Y361327D02*
X113405Y358870D01*
X114633Y357641D01*
X119548Y357641D01*
X120777Y358870D01*
X120777Y361327D01*
X119548Y362556D01*
X130429Y293370D02*
X130360Y293368D01*
X130292Y293363D01*
X130224Y293353D01*
X130156Y293340D01*
X130089Y293324D01*
X130023Y293304D01*
X129959Y293280D01*
X129896Y293253D01*
X129834Y293222D01*
X129774Y293188D01*
X129716Y293151D01*
X129660Y293111D01*
X129607Y293068D01*
X129556Y293022D01*
X129507Y292973D01*
X129461Y292922D01*
X129418Y292869D01*
X129378Y292813D01*
X129341Y292755D01*
X129307Y292695D01*
X129276Y292633D01*
X129249Y292570D01*
X129225Y292506D01*
X129205Y292440D01*
X129189Y292373D01*
X129176Y292305D01*
X129166Y292237D01*
X129161Y292169D01*
X129159Y292100D01*
X130429Y293370D02*
X136779Y293370D01*
X136848Y293368D01*
X136916Y293363D01*
X136984Y293353D01*
X137052Y293340D01*
X137119Y293324D01*
X137185Y293304D01*
X137249Y293280D01*
X137312Y293253D01*
X137374Y293222D01*
X137434Y293188D01*
X137492Y293151D01*
X137548Y293111D01*
X137601Y293068D01*
X137652Y293022D01*
X137701Y292973D01*
X137747Y292922D01*
X137790Y292869D01*
X137830Y292813D01*
X137867Y292755D01*
X137901Y292695D01*
X137932Y292633D01*
X137959Y292570D01*
X137983Y292506D01*
X138003Y292440D01*
X138019Y292373D01*
X138032Y292305D01*
X138042Y292237D01*
X138047Y292169D01*
X138049Y292100D01*
X138049Y276860D01*
X138047Y276791D01*
X138042Y276723D01*
X138032Y276655D01*
X138019Y276587D01*
X138003Y276520D01*
X137983Y276454D01*
X137959Y276390D01*
X137932Y276327D01*
X137901Y276265D01*
X137867Y276205D01*
X137830Y276147D01*
X137790Y276091D01*
X137747Y276038D01*
X137701Y275987D01*
X137652Y275938D01*
X137601Y275892D01*
X137548Y275849D01*
X137492Y275809D01*
X137434Y275772D01*
X137374Y275738D01*
X137312Y275707D01*
X137249Y275680D01*
X137185Y275656D01*
X137119Y275636D01*
X137052Y275620D01*
X136984Y275607D01*
X136916Y275597D01*
X136848Y275592D01*
X136779Y275590D01*
X130429Y275590D01*
X130360Y275592D01*
X130292Y275597D01*
X130224Y275607D01*
X130156Y275620D01*
X130089Y275636D01*
X130023Y275656D01*
X129959Y275680D01*
X129896Y275707D01*
X129834Y275738D01*
X129774Y275772D01*
X129716Y275809D01*
X129660Y275849D01*
X129607Y275892D01*
X129556Y275938D01*
X129507Y275987D01*
X129461Y276038D01*
X129418Y276091D01*
X129378Y276147D01*
X129341Y276205D01*
X129307Y276265D01*
X129276Y276327D01*
X129249Y276390D01*
X129225Y276454D01*
X129205Y276520D01*
X129189Y276587D01*
X129176Y276655D01*
X129166Y276723D01*
X129161Y276791D01*
X129159Y276860D01*
X129159Y292100D01*
X56642Y132461D02*
X56644Y132392D01*
X56649Y132324D01*
X56659Y132256D01*
X56672Y132188D01*
X56688Y132121D01*
X56708Y132055D01*
X56732Y131991D01*
X56759Y131928D01*
X56790Y131866D01*
X56824Y131806D01*
X56861Y131748D01*
X56901Y131692D01*
X56944Y131639D01*
X56990Y131588D01*
X57039Y131539D01*
X57090Y131493D01*
X57143Y131450D01*
X57199Y131410D01*
X57257Y131373D01*
X57317Y131339D01*
X57379Y131308D01*
X57442Y131281D01*
X57506Y131257D01*
X57572Y131237D01*
X57639Y131221D01*
X57707Y131208D01*
X57775Y131198D01*
X57843Y131193D01*
X57912Y131191D01*
X56642Y132461D02*
X56642Y138811D01*
X56644Y138880D01*
X56649Y138948D01*
X56659Y139016D01*
X56672Y139084D01*
X56688Y139151D01*
X56708Y139217D01*
X56732Y139281D01*
X56759Y139344D01*
X56790Y139406D01*
X56824Y139466D01*
X56861Y139524D01*
X56901Y139580D01*
X56944Y139633D01*
X56990Y139684D01*
X57039Y139733D01*
X57090Y139779D01*
X57143Y139822D01*
X57199Y139862D01*
X57257Y139899D01*
X57317Y139933D01*
X57379Y139964D01*
X57442Y139991D01*
X57506Y140015D01*
X57572Y140035D01*
X57639Y140051D01*
X57707Y140064D01*
X57775Y140074D01*
X57843Y140079D01*
X57912Y140081D01*
X73152Y140081D01*
X73221Y140079D01*
X73289Y140074D01*
X73357Y140064D01*
X73425Y140051D01*
X73492Y140035D01*
X73558Y140015D01*
X73622Y139991D01*
X73685Y139964D01*
X73747Y139933D01*
X73807Y139899D01*
X73865Y139862D01*
X73921Y139822D01*
X73974Y139779D01*
X74025Y139733D01*
X74074Y139684D01*
X74120Y139633D01*
X74163Y139580D01*
X74203Y139524D01*
X74240Y139466D01*
X74274Y139406D01*
X74305Y139344D01*
X74332Y139281D01*
X74356Y139217D01*
X74376Y139151D01*
X74392Y139084D01*
X74405Y139016D01*
X74415Y138948D01*
X74420Y138880D01*
X74422Y138811D01*
X74422Y132461D01*
X74420Y132392D01*
X74415Y132324D01*
X74405Y132256D01*
X74392Y132188D01*
X74376Y132121D01*
X74356Y132055D01*
X74332Y131991D01*
X74305Y131928D01*
X74274Y131866D01*
X74240Y131806D01*
X74203Y131748D01*
X74163Y131692D01*
X74120Y131639D01*
X74074Y131588D01*
X74025Y131539D01*
X73974Y131493D01*
X73921Y131450D01*
X73865Y131410D01*
X73807Y131373D01*
X73747Y131339D01*
X73685Y131308D01*
X73622Y131281D01*
X73558Y131257D01*
X73492Y131237D01*
X73425Y131221D01*
X73357Y131208D01*
X73289Y131198D01*
X73221Y131193D01*
X73152Y131191D01*
X57912Y131191D01*
D11*
X136906Y370078D02*
X136906Y398018D01*
X136906Y370078D02*
X124206Y370078D01*
X124206Y398018D01*
X136906Y398018D01*
X153670Y398018D02*
X153670Y370078D01*
X140970Y370078D01*
X140970Y398018D01*
X153670Y398018D01*
X170434Y398018D02*
X170434Y370078D01*
X157734Y370078D01*
X157734Y398018D01*
X170434Y398018D01*
D10*
X82677Y325628D02*
X82675Y325559D01*
X82670Y325491D01*
X82660Y325423D01*
X82647Y325355D01*
X82631Y325288D01*
X82611Y325222D01*
X82587Y325158D01*
X82560Y325095D01*
X82529Y325033D01*
X82495Y324973D01*
X82458Y324915D01*
X82418Y324859D01*
X82375Y324806D01*
X82329Y324755D01*
X82280Y324706D01*
X82229Y324660D01*
X82176Y324617D01*
X82120Y324577D01*
X82062Y324540D01*
X82002Y324506D01*
X81940Y324475D01*
X81877Y324448D01*
X81813Y324424D01*
X81747Y324404D01*
X81680Y324388D01*
X81612Y324375D01*
X81544Y324365D01*
X81476Y324360D01*
X81407Y324358D01*
X75057Y324358D01*
X74988Y324360D01*
X74920Y324365D01*
X74852Y324375D01*
X74784Y324388D01*
X74717Y324404D01*
X74651Y324424D01*
X74587Y324448D01*
X74524Y324475D01*
X74462Y324506D01*
X74402Y324540D01*
X74344Y324577D01*
X74288Y324617D01*
X74235Y324660D01*
X74184Y324706D01*
X74135Y324755D01*
X74089Y324806D01*
X74046Y324859D01*
X74006Y324915D01*
X73969Y324973D01*
X73935Y325033D01*
X73904Y325095D01*
X73877Y325158D01*
X73853Y325222D01*
X73833Y325288D01*
X73817Y325355D01*
X73804Y325423D01*
X73794Y325491D01*
X73789Y325559D01*
X73787Y325628D01*
X73787Y340868D01*
X73789Y340937D01*
X73794Y341005D01*
X73804Y341073D01*
X73817Y341141D01*
X73833Y341208D01*
X73853Y341274D01*
X73877Y341338D01*
X73904Y341401D01*
X73935Y341463D01*
X73969Y341523D01*
X74006Y341581D01*
X74046Y341637D01*
X74089Y341690D01*
X74135Y341741D01*
X74184Y341790D01*
X74235Y341836D01*
X74288Y341879D01*
X74344Y341919D01*
X74402Y341956D01*
X74462Y341990D01*
X74524Y342021D01*
X74587Y342048D01*
X74651Y342072D01*
X74717Y342092D01*
X74784Y342108D01*
X74852Y342121D01*
X74920Y342131D01*
X74988Y342136D01*
X75057Y342138D01*
X81407Y342138D01*
X81476Y342136D01*
X81544Y342131D01*
X81612Y342121D01*
X81680Y342108D01*
X81747Y342092D01*
X81813Y342072D01*
X81877Y342048D01*
X81940Y342021D01*
X82002Y341990D01*
X82062Y341956D01*
X82120Y341919D01*
X82176Y341879D01*
X82229Y341836D01*
X82280Y341790D01*
X82329Y341741D01*
X82375Y341690D01*
X82418Y341637D01*
X82458Y341581D01*
X82495Y341523D01*
X82529Y341463D01*
X82560Y341401D01*
X82587Y341338D01*
X82611Y341274D01*
X82631Y341208D01*
X82647Y341141D01*
X82660Y341073D01*
X82670Y341005D01*
X82675Y340937D01*
X82677Y340868D01*
X82677Y325628D01*
X73787Y360172D02*
X73789Y360241D01*
X73794Y360309D01*
X73804Y360377D01*
X73817Y360445D01*
X73833Y360512D01*
X73853Y360578D01*
X73877Y360642D01*
X73904Y360705D01*
X73935Y360767D01*
X73969Y360827D01*
X74006Y360885D01*
X74046Y360941D01*
X74089Y360994D01*
X74135Y361045D01*
X74184Y361094D01*
X74235Y361140D01*
X74288Y361183D01*
X74344Y361223D01*
X74402Y361260D01*
X74462Y361294D01*
X74524Y361325D01*
X74587Y361352D01*
X74651Y361376D01*
X74717Y361396D01*
X74784Y361412D01*
X74852Y361425D01*
X74920Y361435D01*
X74988Y361440D01*
X75057Y361442D01*
X81407Y361442D01*
X81476Y361440D01*
X81544Y361435D01*
X81612Y361425D01*
X81680Y361412D01*
X81747Y361396D01*
X81813Y361376D01*
X81877Y361352D01*
X81940Y361325D01*
X82002Y361294D01*
X82062Y361260D01*
X82120Y361223D01*
X82176Y361183D01*
X82229Y361140D01*
X82280Y361094D01*
X82329Y361045D01*
X82375Y360994D01*
X82418Y360941D01*
X82458Y360885D01*
X82495Y360827D01*
X82529Y360767D01*
X82560Y360705D01*
X82587Y360642D01*
X82611Y360578D01*
X82631Y360512D01*
X82647Y360445D01*
X82660Y360377D01*
X82670Y360309D01*
X82675Y360241D01*
X82677Y360172D01*
X82677Y344932D01*
X82675Y344863D01*
X82670Y344795D01*
X82660Y344727D01*
X82647Y344659D01*
X82631Y344592D01*
X82611Y344526D01*
X82587Y344462D01*
X82560Y344399D01*
X82529Y344337D01*
X82495Y344277D01*
X82458Y344219D01*
X82418Y344163D01*
X82375Y344110D01*
X82329Y344059D01*
X82280Y344010D01*
X82229Y343964D01*
X82176Y343921D01*
X82120Y343881D01*
X82062Y343844D01*
X82002Y343810D01*
X81940Y343779D01*
X81877Y343752D01*
X81813Y343728D01*
X81747Y343708D01*
X81680Y343692D01*
X81612Y343679D01*
X81544Y343669D01*
X81476Y343664D01*
X81407Y343662D01*
X75057Y343662D01*
X74988Y343664D01*
X74920Y343669D01*
X74852Y343679D01*
X74784Y343692D01*
X74717Y343708D01*
X74651Y343728D01*
X74587Y343752D01*
X74524Y343779D01*
X74462Y343810D01*
X74402Y343844D01*
X74344Y343881D01*
X74288Y343921D01*
X74235Y343964D01*
X74184Y344010D01*
X74135Y344059D01*
X74089Y344110D01*
X74046Y344163D01*
X74006Y344219D01*
X73969Y344277D01*
X73935Y344337D01*
X73904Y344399D01*
X73877Y344462D01*
X73853Y344526D01*
X73833Y344592D01*
X73817Y344659D01*
X73804Y344727D01*
X73794Y344795D01*
X73789Y344863D01*
X73787Y344932D01*
X73787Y360172D01*
X88392Y182245D02*
X88394Y182176D01*
X88399Y182108D01*
X88409Y182040D01*
X88422Y181972D01*
X88438Y181905D01*
X88458Y181839D01*
X88482Y181775D01*
X88509Y181712D01*
X88540Y181650D01*
X88574Y181590D01*
X88611Y181532D01*
X88651Y181476D01*
X88694Y181423D01*
X88740Y181372D01*
X88789Y181323D01*
X88840Y181277D01*
X88893Y181234D01*
X88949Y181194D01*
X89007Y181157D01*
X89067Y181123D01*
X89129Y181092D01*
X89192Y181065D01*
X89256Y181041D01*
X89322Y181021D01*
X89389Y181005D01*
X89457Y180992D01*
X89525Y180982D01*
X89593Y180977D01*
X89662Y180975D01*
X88392Y182245D02*
X88392Y188595D01*
X88394Y188664D01*
X88399Y188732D01*
X88409Y188800D01*
X88422Y188868D01*
X88438Y188935D01*
X88458Y189001D01*
X88482Y189065D01*
X88509Y189128D01*
X88540Y189190D01*
X88574Y189250D01*
X88611Y189308D01*
X88651Y189364D01*
X88694Y189417D01*
X88740Y189468D01*
X88789Y189517D01*
X88840Y189563D01*
X88893Y189606D01*
X88949Y189646D01*
X89007Y189683D01*
X89067Y189717D01*
X89129Y189748D01*
X89192Y189775D01*
X89256Y189799D01*
X89322Y189819D01*
X89389Y189835D01*
X89457Y189848D01*
X89525Y189858D01*
X89593Y189863D01*
X89662Y189865D01*
X104902Y189865D01*
X104971Y189863D01*
X105039Y189858D01*
X105107Y189848D01*
X105175Y189835D01*
X105242Y189819D01*
X105308Y189799D01*
X105372Y189775D01*
X105435Y189748D01*
X105497Y189717D01*
X105557Y189683D01*
X105615Y189646D01*
X105671Y189606D01*
X105724Y189563D01*
X105775Y189517D01*
X105824Y189468D01*
X105870Y189417D01*
X105913Y189364D01*
X105953Y189308D01*
X105990Y189250D01*
X106024Y189190D01*
X106055Y189128D01*
X106082Y189065D01*
X106106Y189001D01*
X106126Y188935D01*
X106142Y188868D01*
X106155Y188800D01*
X106165Y188732D01*
X106170Y188664D01*
X106172Y188595D01*
X106172Y182245D01*
X106170Y182176D01*
X106165Y182108D01*
X106155Y182040D01*
X106142Y181972D01*
X106126Y181905D01*
X106106Y181839D01*
X106082Y181775D01*
X106055Y181712D01*
X106024Y181650D01*
X105990Y181590D01*
X105953Y181532D01*
X105913Y181476D01*
X105870Y181423D01*
X105824Y181372D01*
X105775Y181323D01*
X105724Y181277D01*
X105671Y181234D01*
X105615Y181194D01*
X105557Y181157D01*
X105497Y181123D01*
X105435Y181092D01*
X105372Y181065D01*
X105308Y181041D01*
X105242Y181021D01*
X105175Y181005D01*
X105107Y180992D01*
X105039Y180982D01*
X104971Y180977D01*
X104902Y180975D01*
X89662Y180975D01*
D11*
X76454Y234696D02*
X104394Y234696D01*
X76454Y234696D02*
X76454Y247396D01*
X104394Y247396D01*
X104394Y234696D01*
D10*
X61087Y391922D02*
X61156Y391924D01*
X61224Y391929D01*
X61292Y391939D01*
X61360Y391952D01*
X61427Y391968D01*
X61493Y391988D01*
X61557Y392012D01*
X61620Y392039D01*
X61682Y392070D01*
X61742Y392104D01*
X61800Y392141D01*
X61856Y392181D01*
X61909Y392224D01*
X61960Y392270D01*
X62009Y392319D01*
X62055Y392370D01*
X62098Y392423D01*
X62138Y392479D01*
X62175Y392537D01*
X62209Y392597D01*
X62240Y392659D01*
X62267Y392722D01*
X62291Y392786D01*
X62311Y392852D01*
X62327Y392919D01*
X62340Y392987D01*
X62350Y393055D01*
X62355Y393123D01*
X62357Y393192D01*
X61087Y391922D02*
X54737Y391922D01*
X54668Y391924D01*
X54600Y391929D01*
X54532Y391939D01*
X54464Y391952D01*
X54397Y391968D01*
X54331Y391988D01*
X54267Y392012D01*
X54204Y392039D01*
X54142Y392070D01*
X54082Y392104D01*
X54024Y392141D01*
X53968Y392181D01*
X53915Y392224D01*
X53864Y392270D01*
X53815Y392319D01*
X53769Y392370D01*
X53726Y392423D01*
X53686Y392479D01*
X53649Y392537D01*
X53615Y392597D01*
X53584Y392659D01*
X53557Y392722D01*
X53533Y392786D01*
X53513Y392852D01*
X53497Y392919D01*
X53484Y392987D01*
X53474Y393055D01*
X53469Y393123D01*
X53467Y393192D01*
X53467Y408432D01*
X53469Y408501D01*
X53474Y408569D01*
X53484Y408637D01*
X53497Y408705D01*
X53513Y408772D01*
X53533Y408838D01*
X53557Y408902D01*
X53584Y408965D01*
X53615Y409027D01*
X53649Y409087D01*
X53686Y409145D01*
X53726Y409201D01*
X53769Y409254D01*
X53815Y409305D01*
X53864Y409354D01*
X53915Y409400D01*
X53968Y409443D01*
X54024Y409483D01*
X54082Y409520D01*
X54142Y409554D01*
X54204Y409585D01*
X54267Y409612D01*
X54331Y409636D01*
X54397Y409656D01*
X54464Y409672D01*
X54532Y409685D01*
X54600Y409695D01*
X54668Y409700D01*
X54737Y409702D01*
X61087Y409702D01*
X61156Y409700D01*
X61224Y409695D01*
X61292Y409685D01*
X61360Y409672D01*
X61427Y409656D01*
X61493Y409636D01*
X61557Y409612D01*
X61620Y409585D01*
X61682Y409554D01*
X61742Y409520D01*
X61800Y409483D01*
X61856Y409443D01*
X61909Y409400D01*
X61960Y409354D01*
X62009Y409305D01*
X62055Y409254D01*
X62098Y409201D01*
X62138Y409145D01*
X62175Y409087D01*
X62209Y409027D01*
X62240Y408965D01*
X62267Y408902D01*
X62291Y408838D01*
X62311Y408772D01*
X62327Y408705D01*
X62340Y408637D01*
X62350Y408569D01*
X62355Y408501D01*
X62357Y408432D01*
X62357Y393192D01*
X54737Y390906D02*
X54668Y390904D01*
X54600Y390899D01*
X54532Y390889D01*
X54464Y390876D01*
X54397Y390860D01*
X54331Y390840D01*
X54267Y390816D01*
X54204Y390789D01*
X54142Y390758D01*
X54082Y390724D01*
X54024Y390687D01*
X53968Y390647D01*
X53915Y390604D01*
X53864Y390558D01*
X53815Y390509D01*
X53769Y390458D01*
X53726Y390405D01*
X53686Y390349D01*
X53649Y390291D01*
X53615Y390231D01*
X53584Y390169D01*
X53557Y390106D01*
X53533Y390042D01*
X53513Y389976D01*
X53497Y389909D01*
X53484Y389841D01*
X53474Y389773D01*
X53469Y389705D01*
X53467Y389636D01*
X54737Y390906D02*
X61087Y390906D01*
X61156Y390904D01*
X61224Y390899D01*
X61292Y390889D01*
X61360Y390876D01*
X61427Y390860D01*
X61493Y390840D01*
X61557Y390816D01*
X61620Y390789D01*
X61682Y390758D01*
X61742Y390724D01*
X61800Y390687D01*
X61856Y390647D01*
X61909Y390604D01*
X61960Y390558D01*
X62009Y390509D01*
X62055Y390458D01*
X62098Y390405D01*
X62138Y390349D01*
X62175Y390291D01*
X62209Y390231D01*
X62240Y390169D01*
X62267Y390106D01*
X62291Y390042D01*
X62311Y389976D01*
X62327Y389909D01*
X62340Y389841D01*
X62350Y389773D01*
X62355Y389705D01*
X62357Y389636D01*
X62357Y374396D01*
X62355Y374327D01*
X62350Y374259D01*
X62340Y374191D01*
X62327Y374123D01*
X62311Y374056D01*
X62291Y373990D01*
X62267Y373926D01*
X62240Y373863D01*
X62209Y373801D01*
X62175Y373741D01*
X62138Y373683D01*
X62098Y373627D01*
X62055Y373574D01*
X62009Y373523D01*
X61960Y373474D01*
X61909Y373428D01*
X61856Y373385D01*
X61800Y373345D01*
X61742Y373308D01*
X61682Y373274D01*
X61620Y373243D01*
X61557Y373216D01*
X61493Y373192D01*
X61427Y373172D01*
X61360Y373156D01*
X61292Y373143D01*
X61224Y373133D01*
X61156Y373128D01*
X61087Y373126D01*
X54737Y373126D01*
X54668Y373128D01*
X54600Y373133D01*
X54532Y373143D01*
X54464Y373156D01*
X54397Y373172D01*
X54331Y373192D01*
X54267Y373216D01*
X54204Y373243D01*
X54142Y373274D01*
X54082Y373308D01*
X54024Y373345D01*
X53968Y373385D01*
X53915Y373428D01*
X53864Y373474D01*
X53815Y373523D01*
X53769Y373574D01*
X53726Y373627D01*
X53686Y373683D01*
X53649Y373741D01*
X53615Y373801D01*
X53584Y373863D01*
X53557Y373926D01*
X53533Y373990D01*
X53513Y374056D01*
X53497Y374123D01*
X53484Y374191D01*
X53474Y374259D01*
X53469Y374327D01*
X53467Y374396D01*
X53467Y389636D01*
D11*
X105256Y172076D02*
X117756Y172076D01*
X117756Y155076D01*
X105256Y155076D01*
X105256Y172076D01*
X107696Y162176D02*
X115316Y162176D01*
X111506Y166116D02*
X107696Y162306D01*
X111506Y166116D02*
X115316Y162306D01*
X85344Y113792D02*
X85344Y70612D01*
X85344Y113792D02*
X105664Y113792D01*
X105664Y70612D01*
X85344Y70612D01*
D12*
X82040Y42590D02*
X153160Y42590D01*
X153160Y24810D01*
X160780Y24810D01*
X160780Y4490D01*
X153160Y4490D01*
X153160Y-8210D01*
X82040Y-8210D01*
X82040Y4490D01*
X74420Y4490D01*
X74420Y24810D01*
X82040Y24810D01*
X82040Y42590D01*
D13*
X86646Y253972D02*
X56646Y253972D01*
X56646Y313972D01*
X86646Y313972D01*
X86646Y253972D01*
D14*
X92964Y259588D03*
D13*
X184700Y109500D02*
X184700Y70500D01*
X155700Y70500D01*
X155700Y109500D01*
X184700Y109500D01*
X161200Y90000D02*
X161203Y90221D01*
X161211Y90442D01*
X161224Y90662D01*
X161243Y90882D01*
X161268Y91102D01*
X161297Y91321D01*
X161333Y91539D01*
X161373Y91756D01*
X161419Y91972D01*
X161470Y92187D01*
X161526Y92400D01*
X161588Y92613D01*
X161654Y92823D01*
X161726Y93032D01*
X161803Y93239D01*
X161885Y93444D01*
X161972Y93647D01*
X162064Y93848D01*
X162161Y94047D01*
X162263Y94243D01*
X162369Y94436D01*
X162480Y94627D01*
X162596Y94815D01*
X162717Y95000D01*
X162842Y95182D01*
X162971Y95361D01*
X163105Y95537D01*
X163243Y95710D01*
X163385Y95879D01*
X163531Y96044D01*
X163682Y96206D01*
X163836Y96364D01*
X163994Y96518D01*
X164156Y96669D01*
X164321Y96815D01*
X164490Y96957D01*
X164663Y97095D01*
X164839Y97229D01*
X165018Y97358D01*
X165200Y97483D01*
X165385Y97604D01*
X165573Y97720D01*
X165764Y97831D01*
X165957Y97937D01*
X166153Y98039D01*
X166352Y98136D01*
X166553Y98228D01*
X166756Y98315D01*
X166961Y98397D01*
X167168Y98474D01*
X167377Y98546D01*
X167587Y98612D01*
X167800Y98674D01*
X168013Y98730D01*
X168228Y98781D01*
X168444Y98827D01*
X168661Y98867D01*
X168879Y98903D01*
X169098Y98932D01*
X169318Y98957D01*
X169538Y98976D01*
X169758Y98989D01*
X169979Y98997D01*
X170200Y99000D01*
X170421Y98997D01*
X170642Y98989D01*
X170862Y98976D01*
X171082Y98957D01*
X171302Y98932D01*
X171521Y98903D01*
X171739Y98867D01*
X171956Y98827D01*
X172172Y98781D01*
X172387Y98730D01*
X172600Y98674D01*
X172813Y98612D01*
X173023Y98546D01*
X173232Y98474D01*
X173439Y98397D01*
X173644Y98315D01*
X173847Y98228D01*
X174048Y98136D01*
X174247Y98039D01*
X174443Y97937D01*
X174636Y97831D01*
X174827Y97720D01*
X175015Y97604D01*
X175200Y97483D01*
X175382Y97358D01*
X175561Y97229D01*
X175737Y97095D01*
X175910Y96957D01*
X176079Y96815D01*
X176244Y96669D01*
X176406Y96518D01*
X176564Y96364D01*
X176718Y96206D01*
X176869Y96044D01*
X177015Y95879D01*
X177157Y95710D01*
X177295Y95537D01*
X177429Y95361D01*
X177558Y95182D01*
X177683Y95000D01*
X177804Y94815D01*
X177920Y94627D01*
X178031Y94436D01*
X178137Y94243D01*
X178239Y94047D01*
X178336Y93848D01*
X178428Y93647D01*
X178515Y93444D01*
X178597Y93239D01*
X178674Y93032D01*
X178746Y92823D01*
X178812Y92613D01*
X178874Y92400D01*
X178930Y92187D01*
X178981Y91972D01*
X179027Y91756D01*
X179067Y91539D01*
X179103Y91321D01*
X179132Y91102D01*
X179157Y90882D01*
X179176Y90662D01*
X179189Y90442D01*
X179197Y90221D01*
X179200Y90000D01*
X179197Y89779D01*
X179189Y89558D01*
X179176Y89338D01*
X179157Y89118D01*
X179132Y88898D01*
X179103Y88679D01*
X179067Y88461D01*
X179027Y88244D01*
X178981Y88028D01*
X178930Y87813D01*
X178874Y87600D01*
X178812Y87387D01*
X178746Y87177D01*
X178674Y86968D01*
X178597Y86761D01*
X178515Y86556D01*
X178428Y86353D01*
X178336Y86152D01*
X178239Y85953D01*
X178137Y85757D01*
X178031Y85564D01*
X177920Y85373D01*
X177804Y85185D01*
X177683Y85000D01*
X177558Y84818D01*
X177429Y84639D01*
X177295Y84463D01*
X177157Y84290D01*
X177015Y84121D01*
X176869Y83956D01*
X176718Y83794D01*
X176564Y83636D01*
X176406Y83482D01*
X176244Y83331D01*
X176079Y83185D01*
X175910Y83043D01*
X175737Y82905D01*
X175561Y82771D01*
X175382Y82642D01*
X175200Y82517D01*
X175015Y82396D01*
X174827Y82280D01*
X174636Y82169D01*
X174443Y82063D01*
X174247Y81961D01*
X174048Y81864D01*
X173847Y81772D01*
X173644Y81685D01*
X173439Y81603D01*
X173232Y81526D01*
X173023Y81454D01*
X172813Y81388D01*
X172600Y81326D01*
X172387Y81270D01*
X172172Y81219D01*
X171956Y81173D01*
X171739Y81133D01*
X171521Y81097D01*
X171302Y81068D01*
X171082Y81043D01*
X170862Y81024D01*
X170642Y81011D01*
X170421Y81003D01*
X170200Y81000D01*
X169979Y81003D01*
X169758Y81011D01*
X169538Y81024D01*
X169318Y81043D01*
X169098Y81068D01*
X168879Y81097D01*
X168661Y81133D01*
X168444Y81173D01*
X168228Y81219D01*
X168013Y81270D01*
X167800Y81326D01*
X167587Y81388D01*
X167377Y81454D01*
X167168Y81526D01*
X166961Y81603D01*
X166756Y81685D01*
X166553Y81772D01*
X166352Y81864D01*
X166153Y81961D01*
X165957Y82063D01*
X165764Y82169D01*
X165573Y82280D01*
X165385Y82396D01*
X165200Y82517D01*
X165018Y82642D01*
X164839Y82771D01*
X164663Y82905D01*
X164490Y83043D01*
X164321Y83185D01*
X164156Y83331D01*
X163994Y83482D01*
X163836Y83636D01*
X163682Y83794D01*
X163531Y83956D01*
X163385Y84121D01*
X163243Y84290D01*
X163105Y84463D01*
X162971Y84639D01*
X162842Y84818D01*
X162717Y85000D01*
X162596Y85185D01*
X162480Y85373D01*
X162369Y85564D01*
X162263Y85757D01*
X162161Y85953D01*
X162064Y86152D01*
X161972Y86353D01*
X161885Y86556D01*
X161803Y86761D01*
X161726Y86968D01*
X161654Y87177D01*
X161588Y87387D01*
X161526Y87600D01*
X161470Y87813D01*
X161419Y88028D01*
X161373Y88244D01*
X161333Y88461D01*
X161297Y88679D01*
X161268Y88898D01*
X161243Y89118D01*
X161224Y89338D01*
X161211Y89558D01*
X161203Y89779D01*
X161200Y90000D01*
X79500Y109500D02*
X79500Y70500D01*
X50500Y70500D01*
X50500Y109500D01*
X79500Y109500D01*
X56000Y90000D02*
X56003Y90221D01*
X56011Y90442D01*
X56024Y90662D01*
X56043Y90882D01*
X56068Y91102D01*
X56097Y91321D01*
X56133Y91539D01*
X56173Y91756D01*
X56219Y91972D01*
X56270Y92187D01*
X56326Y92400D01*
X56388Y92613D01*
X56454Y92823D01*
X56526Y93032D01*
X56603Y93239D01*
X56685Y93444D01*
X56772Y93647D01*
X56864Y93848D01*
X56961Y94047D01*
X57063Y94243D01*
X57169Y94436D01*
X57280Y94627D01*
X57396Y94815D01*
X57517Y95000D01*
X57642Y95182D01*
X57771Y95361D01*
X57905Y95537D01*
X58043Y95710D01*
X58185Y95879D01*
X58331Y96044D01*
X58482Y96206D01*
X58636Y96364D01*
X58794Y96518D01*
X58956Y96669D01*
X59121Y96815D01*
X59290Y96957D01*
X59463Y97095D01*
X59639Y97229D01*
X59818Y97358D01*
X60000Y97483D01*
X60185Y97604D01*
X60373Y97720D01*
X60564Y97831D01*
X60757Y97937D01*
X60953Y98039D01*
X61152Y98136D01*
X61353Y98228D01*
X61556Y98315D01*
X61761Y98397D01*
X61968Y98474D01*
X62177Y98546D01*
X62387Y98612D01*
X62600Y98674D01*
X62813Y98730D01*
X63028Y98781D01*
X63244Y98827D01*
X63461Y98867D01*
X63679Y98903D01*
X63898Y98932D01*
X64118Y98957D01*
X64338Y98976D01*
X64558Y98989D01*
X64779Y98997D01*
X65000Y99000D01*
X65221Y98997D01*
X65442Y98989D01*
X65662Y98976D01*
X65882Y98957D01*
X66102Y98932D01*
X66321Y98903D01*
X66539Y98867D01*
X66756Y98827D01*
X66972Y98781D01*
X67187Y98730D01*
X67400Y98674D01*
X67613Y98612D01*
X67823Y98546D01*
X68032Y98474D01*
X68239Y98397D01*
X68444Y98315D01*
X68647Y98228D01*
X68848Y98136D01*
X69047Y98039D01*
X69243Y97937D01*
X69436Y97831D01*
X69627Y97720D01*
X69815Y97604D01*
X70000Y97483D01*
X70182Y97358D01*
X70361Y97229D01*
X70537Y97095D01*
X70710Y96957D01*
X70879Y96815D01*
X71044Y96669D01*
X71206Y96518D01*
X71364Y96364D01*
X71518Y96206D01*
X71669Y96044D01*
X71815Y95879D01*
X71957Y95710D01*
X72095Y95537D01*
X72229Y95361D01*
X72358Y95182D01*
X72483Y95000D01*
X72604Y94815D01*
X72720Y94627D01*
X72831Y94436D01*
X72937Y94243D01*
X73039Y94047D01*
X73136Y93848D01*
X73228Y93647D01*
X73315Y93444D01*
X73397Y93239D01*
X73474Y93032D01*
X73546Y92823D01*
X73612Y92613D01*
X73674Y92400D01*
X73730Y92187D01*
X73781Y91972D01*
X73827Y91756D01*
X73867Y91539D01*
X73903Y91321D01*
X73932Y91102D01*
X73957Y90882D01*
X73976Y90662D01*
X73989Y90442D01*
X73997Y90221D01*
X74000Y90000D01*
X73997Y89779D01*
X73989Y89558D01*
X73976Y89338D01*
X73957Y89118D01*
X73932Y88898D01*
X73903Y88679D01*
X73867Y88461D01*
X73827Y88244D01*
X73781Y88028D01*
X73730Y87813D01*
X73674Y87600D01*
X73612Y87387D01*
X73546Y87177D01*
X73474Y86968D01*
X73397Y86761D01*
X73315Y86556D01*
X73228Y86353D01*
X73136Y86152D01*
X73039Y85953D01*
X72937Y85757D01*
X72831Y85564D01*
X72720Y85373D01*
X72604Y85185D01*
X72483Y85000D01*
X72358Y84818D01*
X72229Y84639D01*
X72095Y84463D01*
X71957Y84290D01*
X71815Y84121D01*
X71669Y83956D01*
X71518Y83794D01*
X71364Y83636D01*
X71206Y83482D01*
X71044Y83331D01*
X70879Y83185D01*
X70710Y83043D01*
X70537Y82905D01*
X70361Y82771D01*
X70182Y82642D01*
X70000Y82517D01*
X69815Y82396D01*
X69627Y82280D01*
X69436Y82169D01*
X69243Y82063D01*
X69047Y81961D01*
X68848Y81864D01*
X68647Y81772D01*
X68444Y81685D01*
X68239Y81603D01*
X68032Y81526D01*
X67823Y81454D01*
X67613Y81388D01*
X67400Y81326D01*
X67187Y81270D01*
X66972Y81219D01*
X66756Y81173D01*
X66539Y81133D01*
X66321Y81097D01*
X66102Y81068D01*
X65882Y81043D01*
X65662Y81024D01*
X65442Y81011D01*
X65221Y81003D01*
X65000Y81000D01*
X64779Y81003D01*
X64558Y81011D01*
X64338Y81024D01*
X64118Y81043D01*
X63898Y81068D01*
X63679Y81097D01*
X63461Y81133D01*
X63244Y81173D01*
X63028Y81219D01*
X62813Y81270D01*
X62600Y81326D01*
X62387Y81388D01*
X62177Y81454D01*
X61968Y81526D01*
X61761Y81603D01*
X61556Y81685D01*
X61353Y81772D01*
X61152Y81864D01*
X60953Y81961D01*
X60757Y82063D01*
X60564Y82169D01*
X60373Y82280D01*
X60185Y82396D01*
X60000Y82517D01*
X59818Y82642D01*
X59639Y82771D01*
X59463Y82905D01*
X59290Y83043D01*
X59121Y83185D01*
X58956Y83331D01*
X58794Y83482D01*
X58636Y83636D01*
X58482Y83794D01*
X58331Y83956D01*
X58185Y84121D01*
X58043Y84290D01*
X57905Y84463D01*
X57771Y84639D01*
X57642Y84818D01*
X57517Y85000D01*
X57396Y85185D01*
X57280Y85373D01*
X57169Y85564D01*
X57063Y85757D01*
X56961Y85953D01*
X56864Y86152D01*
X56772Y86353D01*
X56685Y86556D01*
X56603Y86761D01*
X56526Y86968D01*
X56454Y87177D01*
X56388Y87387D01*
X56326Y87600D01*
X56270Y87813D01*
X56219Y88028D01*
X56173Y88244D01*
X56133Y88461D01*
X56097Y88679D01*
X56068Y88898D01*
X56043Y89118D01*
X56024Y89338D01*
X56011Y89558D01*
X56003Y89779D01*
X56000Y90000D01*
D11*
X65100Y572336D02*
X170100Y572336D01*
X170100Y417336D01*
X65100Y417336D01*
X65100Y572336D01*
X77020Y175560D02*
X90020Y175560D01*
X90020Y149560D02*
X77020Y149560D01*
X77020Y169060D02*
X77020Y175560D01*
X77020Y156060D02*
X77020Y149560D01*
D10*
X117221Y84582D02*
X117152Y84580D01*
X117084Y84575D01*
X117016Y84565D01*
X116948Y84552D01*
X116881Y84536D01*
X116815Y84516D01*
X116751Y84492D01*
X116688Y84465D01*
X116626Y84434D01*
X116566Y84400D01*
X116508Y84363D01*
X116452Y84323D01*
X116399Y84280D01*
X116348Y84234D01*
X116299Y84185D01*
X116253Y84134D01*
X116210Y84081D01*
X116170Y84025D01*
X116133Y83967D01*
X116099Y83907D01*
X116068Y83845D01*
X116041Y83782D01*
X116017Y83718D01*
X115997Y83652D01*
X115981Y83585D01*
X115968Y83517D01*
X115958Y83449D01*
X115953Y83381D01*
X115951Y83312D01*
X117221Y84582D02*
X123571Y84582D01*
X123640Y84580D01*
X123708Y84575D01*
X123776Y84565D01*
X123844Y84552D01*
X123911Y84536D01*
X123977Y84516D01*
X124041Y84492D01*
X124104Y84465D01*
X124166Y84434D01*
X124226Y84400D01*
X124284Y84363D01*
X124340Y84323D01*
X124393Y84280D01*
X124444Y84234D01*
X124493Y84185D01*
X124539Y84134D01*
X124582Y84081D01*
X124622Y84025D01*
X124659Y83967D01*
X124693Y83907D01*
X124724Y83845D01*
X124751Y83782D01*
X124775Y83718D01*
X124795Y83652D01*
X124811Y83585D01*
X124824Y83517D01*
X124834Y83449D01*
X124839Y83381D01*
X124841Y83312D01*
X124841Y68072D01*
X124839Y68003D01*
X124834Y67935D01*
X124824Y67867D01*
X124811Y67799D01*
X124795Y67732D01*
X124775Y67666D01*
X124751Y67602D01*
X124724Y67539D01*
X124693Y67477D01*
X124659Y67417D01*
X124622Y67359D01*
X124582Y67303D01*
X124539Y67250D01*
X124493Y67199D01*
X124444Y67150D01*
X124393Y67104D01*
X124340Y67061D01*
X124284Y67021D01*
X124226Y66984D01*
X124166Y66950D01*
X124104Y66919D01*
X124041Y66892D01*
X123977Y66868D01*
X123911Y66848D01*
X123844Y66832D01*
X123776Y66819D01*
X123708Y66809D01*
X123640Y66804D01*
X123571Y66802D01*
X117221Y66802D01*
X117152Y66804D01*
X117084Y66809D01*
X117016Y66819D01*
X116948Y66832D01*
X116881Y66848D01*
X116815Y66868D01*
X116751Y66892D01*
X116688Y66919D01*
X116626Y66950D01*
X116566Y66984D01*
X116508Y67021D01*
X116452Y67061D01*
X116399Y67104D01*
X116348Y67150D01*
X116299Y67199D01*
X116253Y67250D01*
X116210Y67303D01*
X116170Y67359D01*
X116133Y67417D01*
X116099Y67477D01*
X116068Y67539D01*
X116041Y67602D01*
X116017Y67666D01*
X115997Y67732D01*
X115981Y67799D01*
X115968Y67867D01*
X115958Y67935D01*
X115953Y68003D01*
X115951Y68072D01*
X115951Y83312D01*
X126619Y83312D02*
X126621Y83381D01*
X126626Y83449D01*
X126636Y83517D01*
X126649Y83585D01*
X126665Y83652D01*
X126685Y83718D01*
X126709Y83782D01*
X126736Y83845D01*
X126767Y83907D01*
X126801Y83967D01*
X126838Y84025D01*
X126878Y84081D01*
X126921Y84134D01*
X126967Y84185D01*
X127016Y84234D01*
X127067Y84280D01*
X127120Y84323D01*
X127176Y84363D01*
X127234Y84400D01*
X127294Y84434D01*
X127356Y84465D01*
X127419Y84492D01*
X127483Y84516D01*
X127549Y84536D01*
X127616Y84552D01*
X127684Y84565D01*
X127752Y84575D01*
X127820Y84580D01*
X127889Y84582D01*
X134239Y84582D01*
X134308Y84580D01*
X134376Y84575D01*
X134444Y84565D01*
X134512Y84552D01*
X134579Y84536D01*
X134645Y84516D01*
X134709Y84492D01*
X134772Y84465D01*
X134834Y84434D01*
X134894Y84400D01*
X134952Y84363D01*
X135008Y84323D01*
X135061Y84280D01*
X135112Y84234D01*
X135161Y84185D01*
X135207Y84134D01*
X135250Y84081D01*
X135290Y84025D01*
X135327Y83967D01*
X135361Y83907D01*
X135392Y83845D01*
X135419Y83782D01*
X135443Y83718D01*
X135463Y83652D01*
X135479Y83585D01*
X135492Y83517D01*
X135502Y83449D01*
X135507Y83381D01*
X135509Y83312D01*
X135509Y68072D01*
X135507Y68003D01*
X135502Y67935D01*
X135492Y67867D01*
X135479Y67799D01*
X135463Y67732D01*
X135443Y67666D01*
X135419Y67602D01*
X135392Y67539D01*
X135361Y67477D01*
X135327Y67417D01*
X135290Y67359D01*
X135250Y67303D01*
X135207Y67250D01*
X135161Y67199D01*
X135112Y67150D01*
X135061Y67104D01*
X135008Y67061D01*
X134952Y67021D01*
X134894Y66984D01*
X134834Y66950D01*
X134772Y66919D01*
X134709Y66892D01*
X134645Y66868D01*
X134579Y66848D01*
X134512Y66832D01*
X134444Y66819D01*
X134376Y66809D01*
X134308Y66804D01*
X134239Y66802D01*
X127889Y66802D01*
X127820Y66804D01*
X127752Y66809D01*
X127684Y66819D01*
X127616Y66832D01*
X127549Y66848D01*
X127483Y66868D01*
X127419Y66892D01*
X127356Y66919D01*
X127294Y66950D01*
X127234Y66984D01*
X127176Y67021D01*
X127120Y67061D01*
X127067Y67104D01*
X127016Y67150D01*
X126967Y67199D01*
X126921Y67250D01*
X126878Y67303D01*
X126838Y67359D01*
X126801Y67417D01*
X126767Y67477D01*
X126736Y67539D01*
X126709Y67602D01*
X126685Y67666D01*
X126665Y67732D01*
X126649Y67799D01*
X126636Y67867D01*
X126626Y67935D01*
X126621Y68003D01*
X126619Y68072D01*
X126619Y83312D01*
X74422Y128143D02*
X74420Y128212D01*
X74415Y128280D01*
X74405Y128348D01*
X74392Y128416D01*
X74376Y128483D01*
X74356Y128549D01*
X74332Y128613D01*
X74305Y128676D01*
X74274Y128738D01*
X74240Y128798D01*
X74203Y128856D01*
X74163Y128912D01*
X74120Y128965D01*
X74074Y129016D01*
X74025Y129065D01*
X73974Y129111D01*
X73921Y129154D01*
X73865Y129194D01*
X73807Y129231D01*
X73747Y129265D01*
X73685Y129296D01*
X73622Y129323D01*
X73558Y129347D01*
X73492Y129367D01*
X73425Y129383D01*
X73357Y129396D01*
X73289Y129406D01*
X73221Y129411D01*
X73152Y129413D01*
X74422Y128143D02*
X74422Y121793D01*
X74420Y121724D01*
X74415Y121656D01*
X74405Y121588D01*
X74392Y121520D01*
X74376Y121453D01*
X74356Y121387D01*
X74332Y121323D01*
X74305Y121260D01*
X74274Y121198D01*
X74240Y121138D01*
X74203Y121080D01*
X74163Y121024D01*
X74120Y120971D01*
X74074Y120920D01*
X74025Y120871D01*
X73974Y120825D01*
X73921Y120782D01*
X73865Y120742D01*
X73807Y120705D01*
X73747Y120671D01*
X73685Y120640D01*
X73622Y120613D01*
X73558Y120589D01*
X73492Y120569D01*
X73425Y120553D01*
X73357Y120540D01*
X73289Y120530D01*
X73221Y120525D01*
X73152Y120523D01*
X57912Y120523D01*
X57843Y120525D01*
X57775Y120530D01*
X57707Y120540D01*
X57639Y120553D01*
X57572Y120569D01*
X57506Y120589D01*
X57442Y120613D01*
X57379Y120640D01*
X57317Y120671D01*
X57257Y120705D01*
X57199Y120742D01*
X57143Y120782D01*
X57090Y120825D01*
X57039Y120871D01*
X56990Y120920D01*
X56944Y120971D01*
X56901Y121024D01*
X56861Y121080D01*
X56824Y121138D01*
X56790Y121198D01*
X56759Y121260D01*
X56732Y121323D01*
X56708Y121387D01*
X56688Y121453D01*
X56672Y121520D01*
X56659Y121588D01*
X56649Y121656D01*
X56644Y121724D01*
X56642Y121793D01*
X56642Y128143D01*
X56644Y128212D01*
X56649Y128280D01*
X56659Y128348D01*
X56672Y128416D01*
X56688Y128483D01*
X56708Y128549D01*
X56732Y128613D01*
X56759Y128676D01*
X56790Y128738D01*
X56824Y128798D01*
X56861Y128856D01*
X56901Y128912D01*
X56944Y128965D01*
X56990Y129016D01*
X57039Y129065D01*
X57090Y129111D01*
X57143Y129154D01*
X57199Y129194D01*
X57257Y129231D01*
X57317Y129265D01*
X57379Y129296D01*
X57442Y129323D01*
X57506Y129347D01*
X57572Y129367D01*
X57639Y129383D01*
X57707Y129396D01*
X57775Y129406D01*
X57843Y129411D01*
X57912Y129413D01*
X73152Y129413D01*
X116459Y275590D02*
X116528Y275592D01*
X116596Y275597D01*
X116664Y275607D01*
X116732Y275620D01*
X116799Y275636D01*
X116865Y275656D01*
X116929Y275680D01*
X116992Y275707D01*
X117054Y275738D01*
X117114Y275772D01*
X117172Y275809D01*
X117228Y275849D01*
X117281Y275892D01*
X117332Y275938D01*
X117381Y275987D01*
X117427Y276038D01*
X117470Y276091D01*
X117510Y276147D01*
X117547Y276205D01*
X117581Y276265D01*
X117612Y276327D01*
X117639Y276390D01*
X117663Y276454D01*
X117683Y276520D01*
X117699Y276587D01*
X117712Y276655D01*
X117722Y276723D01*
X117727Y276791D01*
X117729Y276860D01*
X116459Y275590D02*
X110109Y275590D01*
X110040Y275592D01*
X109972Y275597D01*
X109904Y275607D01*
X109836Y275620D01*
X109769Y275636D01*
X109703Y275656D01*
X109639Y275680D01*
X109576Y275707D01*
X109514Y275738D01*
X109454Y275772D01*
X109396Y275809D01*
X109340Y275849D01*
X109287Y275892D01*
X109236Y275938D01*
X109187Y275987D01*
X109141Y276038D01*
X109098Y276091D01*
X109058Y276147D01*
X109021Y276205D01*
X108987Y276265D01*
X108956Y276327D01*
X108929Y276390D01*
X108905Y276454D01*
X108885Y276520D01*
X108869Y276587D01*
X108856Y276655D01*
X108846Y276723D01*
X108841Y276791D01*
X108839Y276860D01*
X108839Y292100D01*
X108841Y292169D01*
X108846Y292237D01*
X108856Y292305D01*
X108869Y292373D01*
X108885Y292440D01*
X108905Y292506D01*
X108929Y292570D01*
X108956Y292633D01*
X108987Y292695D01*
X109021Y292755D01*
X109058Y292813D01*
X109098Y292869D01*
X109141Y292922D01*
X109187Y292973D01*
X109236Y293022D01*
X109287Y293068D01*
X109340Y293111D01*
X109396Y293151D01*
X109454Y293188D01*
X109514Y293222D01*
X109576Y293253D01*
X109639Y293280D01*
X109703Y293304D01*
X109769Y293324D01*
X109836Y293340D01*
X109904Y293353D01*
X109972Y293363D01*
X110040Y293368D01*
X110109Y293370D01*
X116459Y293370D01*
X116528Y293368D01*
X116596Y293363D01*
X116664Y293353D01*
X116732Y293340D01*
X116799Y293324D01*
X116865Y293304D01*
X116929Y293280D01*
X116992Y293253D01*
X117054Y293222D01*
X117114Y293188D01*
X117172Y293151D01*
X117228Y293111D01*
X117281Y293068D01*
X117332Y293022D01*
X117381Y292973D01*
X117427Y292922D01*
X117470Y292869D01*
X117510Y292813D01*
X117547Y292755D01*
X117581Y292695D01*
X117612Y292633D01*
X117639Y292570D01*
X117663Y292506D01*
X117683Y292440D01*
X117699Y292373D01*
X117712Y292305D01*
X117722Y292237D01*
X117727Y292169D01*
X117729Y292100D01*
X117729Y276860D01*
X126619Y275590D02*
X126688Y275592D01*
X126756Y275597D01*
X126824Y275607D01*
X126892Y275620D01*
X126959Y275636D01*
X127025Y275656D01*
X127089Y275680D01*
X127152Y275707D01*
X127214Y275738D01*
X127274Y275772D01*
X127332Y275809D01*
X127388Y275849D01*
X127441Y275892D01*
X127492Y275938D01*
X127541Y275987D01*
X127587Y276038D01*
X127630Y276091D01*
X127670Y276147D01*
X127707Y276205D01*
X127741Y276265D01*
X127772Y276327D01*
X127799Y276390D01*
X127823Y276454D01*
X127843Y276520D01*
X127859Y276587D01*
X127872Y276655D01*
X127882Y276723D01*
X127887Y276791D01*
X127889Y276860D01*
X126619Y275590D02*
X120269Y275590D01*
X120200Y275592D01*
X120132Y275597D01*
X120064Y275607D01*
X119996Y275620D01*
X119929Y275636D01*
X119863Y275656D01*
X119799Y275680D01*
X119736Y275707D01*
X119674Y275738D01*
X119614Y275772D01*
X119556Y275809D01*
X119500Y275849D01*
X119447Y275892D01*
X119396Y275938D01*
X119347Y275987D01*
X119301Y276038D01*
X119258Y276091D01*
X119218Y276147D01*
X119181Y276205D01*
X119147Y276265D01*
X119116Y276327D01*
X119089Y276390D01*
X119065Y276454D01*
X119045Y276520D01*
X119029Y276587D01*
X119016Y276655D01*
X119006Y276723D01*
X119001Y276791D01*
X118999Y276860D01*
X118999Y292100D01*
X119001Y292169D01*
X119006Y292237D01*
X119016Y292305D01*
X119029Y292373D01*
X119045Y292440D01*
X119065Y292506D01*
X119089Y292570D01*
X119116Y292633D01*
X119147Y292695D01*
X119181Y292755D01*
X119218Y292813D01*
X119258Y292869D01*
X119301Y292922D01*
X119347Y292973D01*
X119396Y293022D01*
X119447Y293068D01*
X119500Y293111D01*
X119556Y293151D01*
X119614Y293188D01*
X119674Y293222D01*
X119736Y293253D01*
X119799Y293280D01*
X119863Y293304D01*
X119929Y293324D01*
X119996Y293340D01*
X120064Y293353D01*
X120132Y293363D01*
X120200Y293368D01*
X120269Y293370D01*
X126619Y293370D01*
X126688Y293368D01*
X126756Y293363D01*
X126824Y293353D01*
X126892Y293340D01*
X126959Y293324D01*
X127025Y293304D01*
X127089Y293280D01*
X127152Y293253D01*
X127214Y293222D01*
X127274Y293188D01*
X127332Y293151D01*
X127388Y293111D01*
X127441Y293068D01*
X127492Y293022D01*
X127541Y292973D01*
X127587Y292922D01*
X127630Y292869D01*
X127670Y292813D01*
X127707Y292755D01*
X127741Y292695D01*
X127772Y292633D01*
X127799Y292570D01*
X127823Y292506D01*
X127843Y292440D01*
X127859Y292373D01*
X127872Y292305D01*
X127882Y292237D01*
X127887Y292169D01*
X127889Y292100D01*
X127889Y276860D01*
X84836Y137033D02*
X84838Y136964D01*
X84843Y136896D01*
X84853Y136828D01*
X84866Y136760D01*
X84882Y136693D01*
X84902Y136627D01*
X84926Y136563D01*
X84953Y136500D01*
X84984Y136438D01*
X85018Y136378D01*
X85055Y136320D01*
X85095Y136264D01*
X85138Y136211D01*
X85184Y136160D01*
X85233Y136111D01*
X85284Y136065D01*
X85337Y136022D01*
X85393Y135982D01*
X85451Y135945D01*
X85511Y135911D01*
X85573Y135880D01*
X85636Y135853D01*
X85700Y135829D01*
X85766Y135809D01*
X85833Y135793D01*
X85901Y135780D01*
X85969Y135770D01*
X86037Y135765D01*
X86106Y135763D01*
X84836Y137033D02*
X84836Y143383D01*
X84838Y143452D01*
X84843Y143520D01*
X84853Y143588D01*
X84866Y143656D01*
X84882Y143723D01*
X84902Y143789D01*
X84926Y143853D01*
X84953Y143916D01*
X84984Y143978D01*
X85018Y144038D01*
X85055Y144096D01*
X85095Y144152D01*
X85138Y144205D01*
X85184Y144256D01*
X85233Y144305D01*
X85284Y144351D01*
X85337Y144394D01*
X85393Y144434D01*
X85451Y144471D01*
X85511Y144505D01*
X85573Y144536D01*
X85636Y144563D01*
X85700Y144587D01*
X85766Y144607D01*
X85833Y144623D01*
X85901Y144636D01*
X85969Y144646D01*
X86037Y144651D01*
X86106Y144653D01*
X101346Y144653D01*
X101415Y144651D01*
X101483Y144646D01*
X101551Y144636D01*
X101619Y144623D01*
X101686Y144607D01*
X101752Y144587D01*
X101816Y144563D01*
X101879Y144536D01*
X101941Y144505D01*
X102001Y144471D01*
X102059Y144434D01*
X102115Y144394D01*
X102168Y144351D01*
X102219Y144305D01*
X102268Y144256D01*
X102314Y144205D01*
X102357Y144152D01*
X102397Y144096D01*
X102434Y144038D01*
X102468Y143978D01*
X102499Y143916D01*
X102526Y143853D01*
X102550Y143789D01*
X102570Y143723D01*
X102586Y143656D01*
X102599Y143588D01*
X102609Y143520D01*
X102614Y143452D01*
X102616Y143383D01*
X102616Y137033D01*
X102614Y136964D01*
X102609Y136896D01*
X102599Y136828D01*
X102586Y136760D01*
X102570Y136693D01*
X102550Y136627D01*
X102526Y136563D01*
X102499Y136500D01*
X102468Y136438D01*
X102434Y136378D01*
X102397Y136320D01*
X102357Y136264D01*
X102314Y136211D01*
X102268Y136160D01*
X102219Y136111D01*
X102168Y136065D01*
X102115Y136022D01*
X102059Y135982D01*
X102001Y135945D01*
X101941Y135911D01*
X101879Y135880D01*
X101816Y135853D01*
X101752Y135829D01*
X101686Y135809D01*
X101619Y135793D01*
X101551Y135780D01*
X101483Y135770D01*
X101415Y135765D01*
X101346Y135763D01*
X86106Y135763D01*
D15*
X107642Y204970D02*
X107642Y219220D01*
X76762Y219220D02*
X76762Y204970D01*
D11*
X79898Y375414D02*
X79898Y407414D01*
X65898Y407414D01*
X65898Y375414D01*
X79898Y375414D01*
D16*
X188682Y389382D03*
D10*
X172720Y367157D02*
X172722Y367088D01*
X172727Y367020D01*
X172737Y366952D01*
X172750Y366884D01*
X172766Y366817D01*
X172786Y366751D01*
X172810Y366687D01*
X172837Y366624D01*
X172868Y366562D01*
X172902Y366502D01*
X172939Y366444D01*
X172979Y366388D01*
X173022Y366335D01*
X173068Y366284D01*
X173117Y366235D01*
X173168Y366189D01*
X173221Y366146D01*
X173277Y366106D01*
X173335Y366069D01*
X173395Y366035D01*
X173457Y366004D01*
X173520Y365977D01*
X173584Y365953D01*
X173650Y365933D01*
X173717Y365917D01*
X173785Y365904D01*
X173853Y365894D01*
X173921Y365889D01*
X173990Y365887D01*
X172720Y367157D02*
X172720Y373507D01*
X172722Y373576D01*
X172727Y373644D01*
X172737Y373712D01*
X172750Y373780D01*
X172766Y373847D01*
X172786Y373913D01*
X172810Y373977D01*
X172837Y374040D01*
X172868Y374102D01*
X172902Y374162D01*
X172939Y374220D01*
X172979Y374276D01*
X173022Y374329D01*
X173068Y374380D01*
X173117Y374429D01*
X173168Y374475D01*
X173221Y374518D01*
X173277Y374558D01*
X173335Y374595D01*
X173395Y374629D01*
X173457Y374660D01*
X173520Y374687D01*
X173584Y374711D01*
X173650Y374731D01*
X173717Y374747D01*
X173785Y374760D01*
X173853Y374770D01*
X173921Y374775D01*
X173990Y374777D01*
X189230Y374777D01*
X189299Y374775D01*
X189367Y374770D01*
X189435Y374760D01*
X189503Y374747D01*
X189570Y374731D01*
X189636Y374711D01*
X189700Y374687D01*
X189763Y374660D01*
X189825Y374629D01*
X189885Y374595D01*
X189943Y374558D01*
X189999Y374518D01*
X190052Y374475D01*
X190103Y374429D01*
X190152Y374380D01*
X190198Y374329D01*
X190241Y374276D01*
X190281Y374220D01*
X190318Y374162D01*
X190352Y374102D01*
X190383Y374040D01*
X190410Y373977D01*
X190434Y373913D01*
X190454Y373847D01*
X190470Y373780D01*
X190483Y373712D01*
X190493Y373644D01*
X190498Y373576D01*
X190500Y373507D01*
X190500Y367157D01*
X190498Y367088D01*
X190493Y367020D01*
X190483Y366952D01*
X190470Y366884D01*
X190454Y366817D01*
X190434Y366751D01*
X190410Y366687D01*
X190383Y366624D01*
X190352Y366562D01*
X190318Y366502D01*
X190281Y366444D01*
X190241Y366388D01*
X190198Y366335D01*
X190152Y366284D01*
X190103Y366235D01*
X190052Y366189D01*
X189999Y366146D01*
X189943Y366106D01*
X189885Y366069D01*
X189825Y366035D01*
X189763Y366004D01*
X189700Y365977D01*
X189636Y365953D01*
X189570Y365933D01*
X189503Y365917D01*
X189435Y365904D01*
X189367Y365894D01*
X189299Y365889D01*
X189230Y365887D01*
X173990Y365887D01*
D11*
X140034Y95202D02*
X140034Y89202D01*
X111426Y89202D02*
X111426Y95202D01*
X39688Y473838D02*
X39688Y489838D01*
X47688Y489838D01*
X47688Y473838D01*
X39688Y473838D01*
X39878Y480568D02*
X47498Y480568D01*
X45593Y481838D01*
X43688Y483108D01*
X41783Y481838D01*
X39878Y480568D01*
X41148Y481203D02*
X46228Y481203D01*
X45593Y481838D02*
X41783Y481838D01*
D10*
X50673Y486918D02*
X50675Y486987D01*
X50680Y487055D01*
X50690Y487123D01*
X50703Y487191D01*
X50719Y487258D01*
X50739Y487324D01*
X50763Y487388D01*
X50790Y487451D01*
X50821Y487513D01*
X50855Y487573D01*
X50892Y487631D01*
X50932Y487687D01*
X50975Y487740D01*
X51021Y487791D01*
X51070Y487840D01*
X51121Y487886D01*
X51174Y487929D01*
X51230Y487969D01*
X51288Y488006D01*
X51348Y488040D01*
X51410Y488071D01*
X51473Y488098D01*
X51537Y488122D01*
X51603Y488142D01*
X51670Y488158D01*
X51738Y488171D01*
X51806Y488181D01*
X51874Y488186D01*
X51943Y488188D01*
X58293Y488188D01*
X58362Y488186D01*
X58430Y488181D01*
X58498Y488171D01*
X58566Y488158D01*
X58633Y488142D01*
X58699Y488122D01*
X58763Y488098D01*
X58826Y488071D01*
X58888Y488040D01*
X58948Y488006D01*
X59006Y487969D01*
X59062Y487929D01*
X59115Y487886D01*
X59166Y487840D01*
X59215Y487791D01*
X59261Y487740D01*
X59304Y487687D01*
X59344Y487631D01*
X59381Y487573D01*
X59415Y487513D01*
X59446Y487451D01*
X59473Y487388D01*
X59497Y487324D01*
X59517Y487258D01*
X59533Y487191D01*
X59546Y487123D01*
X59556Y487055D01*
X59561Y486987D01*
X59563Y486918D01*
X59563Y471678D01*
X59561Y471609D01*
X59556Y471541D01*
X59546Y471473D01*
X59533Y471405D01*
X59517Y471338D01*
X59497Y471272D01*
X59473Y471208D01*
X59446Y471145D01*
X59415Y471083D01*
X59381Y471023D01*
X59344Y470965D01*
X59304Y470909D01*
X59261Y470856D01*
X59215Y470805D01*
X59166Y470756D01*
X59115Y470710D01*
X59062Y470667D01*
X59006Y470627D01*
X58948Y470590D01*
X58888Y470556D01*
X58826Y470525D01*
X58763Y470498D01*
X58699Y470474D01*
X58633Y470454D01*
X58566Y470438D01*
X58498Y470425D01*
X58430Y470415D01*
X58362Y470410D01*
X58293Y470408D01*
X51943Y470408D01*
X51874Y470410D01*
X51806Y470415D01*
X51738Y470425D01*
X51670Y470438D01*
X51603Y470454D01*
X51537Y470474D01*
X51473Y470498D01*
X51410Y470525D01*
X51348Y470556D01*
X51288Y470590D01*
X51230Y470627D01*
X51174Y470667D01*
X51121Y470710D01*
X51070Y470756D01*
X51021Y470805D01*
X50975Y470856D01*
X50932Y470909D01*
X50892Y470965D01*
X50855Y471023D01*
X50821Y471083D01*
X50790Y471145D01*
X50763Y471208D01*
X50739Y471272D01*
X50719Y471338D01*
X50703Y471405D01*
X50690Y471473D01*
X50680Y471541D01*
X50675Y471609D01*
X50673Y471678D01*
X50673Y486918D01*
D11*
X39688Y500254D02*
X39688Y516254D01*
X47688Y516254D01*
X47688Y500254D01*
X39688Y500254D01*
X39878Y506984D02*
X47498Y506984D01*
X45593Y508254D01*
X43688Y509524D01*
X41783Y508254D01*
X39878Y506984D01*
X41148Y507619D02*
X46228Y507619D01*
X45593Y508254D02*
X41783Y508254D01*
D10*
X50927Y513334D02*
X50929Y513403D01*
X50934Y513471D01*
X50944Y513539D01*
X50957Y513607D01*
X50973Y513674D01*
X50993Y513740D01*
X51017Y513804D01*
X51044Y513867D01*
X51075Y513929D01*
X51109Y513989D01*
X51146Y514047D01*
X51186Y514103D01*
X51229Y514156D01*
X51275Y514207D01*
X51324Y514256D01*
X51375Y514302D01*
X51428Y514345D01*
X51484Y514385D01*
X51542Y514422D01*
X51602Y514456D01*
X51664Y514487D01*
X51727Y514514D01*
X51791Y514538D01*
X51857Y514558D01*
X51924Y514574D01*
X51992Y514587D01*
X52060Y514597D01*
X52128Y514602D01*
X52197Y514604D01*
X58547Y514604D01*
X58616Y514602D01*
X58684Y514597D01*
X58752Y514587D01*
X58820Y514574D01*
X58887Y514558D01*
X58953Y514538D01*
X59017Y514514D01*
X59080Y514487D01*
X59142Y514456D01*
X59202Y514422D01*
X59260Y514385D01*
X59316Y514345D01*
X59369Y514302D01*
X59420Y514256D01*
X59469Y514207D01*
X59515Y514156D01*
X59558Y514103D01*
X59598Y514047D01*
X59635Y513989D01*
X59669Y513929D01*
X59700Y513867D01*
X59727Y513804D01*
X59751Y513740D01*
X59771Y513674D01*
X59787Y513607D01*
X59800Y513539D01*
X59810Y513471D01*
X59815Y513403D01*
X59817Y513334D01*
X59817Y498094D01*
X59815Y498025D01*
X59810Y497957D01*
X59800Y497889D01*
X59787Y497821D01*
X59771Y497754D01*
X59751Y497688D01*
X59727Y497624D01*
X59700Y497561D01*
X59669Y497499D01*
X59635Y497439D01*
X59598Y497381D01*
X59558Y497325D01*
X59515Y497272D01*
X59469Y497221D01*
X59420Y497172D01*
X59369Y497126D01*
X59316Y497083D01*
X59260Y497043D01*
X59202Y497006D01*
X59142Y496972D01*
X59080Y496941D01*
X59017Y496914D01*
X58953Y496890D01*
X58887Y496870D01*
X58820Y496854D01*
X58752Y496841D01*
X58684Y496831D01*
X58616Y496826D01*
X58547Y496824D01*
X52197Y496824D01*
X52128Y496826D01*
X52060Y496831D01*
X51992Y496841D01*
X51924Y496854D01*
X51857Y496870D01*
X51791Y496890D01*
X51727Y496914D01*
X51664Y496941D01*
X51602Y496972D01*
X51542Y497006D01*
X51484Y497043D01*
X51428Y497083D01*
X51375Y497126D01*
X51324Y497172D01*
X51275Y497221D01*
X51229Y497272D01*
X51186Y497325D01*
X51146Y497381D01*
X51109Y497439D01*
X51075Y497499D01*
X51044Y497561D01*
X51017Y497624D01*
X50993Y497688D01*
X50973Y497754D01*
X50957Y497821D01*
X50944Y497889D01*
X50934Y497957D01*
X50929Y498025D01*
X50927Y498094D01*
X50927Y513334D01*
D11*
X85090Y326644D02*
X110490Y326644D01*
X85090Y326644D02*
X85090Y377444D01*
X110490Y377444D01*
X110490Y326644D01*
X152654Y266954D02*
X178054Y266954D01*
X178054Y139954D01*
X152654Y139954D01*
X152654Y266954D01*
M02*
