M48
;GenerationSoftware,Autodesk,EAGLE,9.2.2*%
;CreationDate,2019-01-22T06:35:21Z*%
FMAT,2
ICI,OFF
METRIC,TZ,000.000
T4C0.305
T3C0.700
T2C0.889
T1C3.000
%
G90
M71
T1
X21520Y2000
X21520Y55300
X2000Y55300
X2000Y2000
T2
X21920Y5640
X1600Y36120
X21920Y25960
X21920Y23420
X21920Y20880
X21920Y18340
X21920Y15800
X9779Y33934
X21920Y13260
X21920Y10720
X21920Y8180
X9779Y36474
X16535Y25425
X16535Y22885
X16535Y20345
X16535Y17805
X16535Y15265
X1600Y51360
X1600Y48820
X1600Y46280
X1600Y43740
X1600Y41200
X1600Y38660
X1600Y33580
X1600Y31040
X1600Y28500
X1600Y25960
X1600Y23420
X1600Y20880
X1600Y18340
X1600Y15800
X1600Y13260
X1600Y10720
X1600Y8180
X1600Y5640
X21920Y51360
X21920Y48820
X21920Y46280
X21920Y43740
X21920Y41200
X21920Y38660
X21920Y36120
X21920Y33580
X21920Y31040
X21920Y28500
T3
X8255Y1719
X8255Y1211
X15265Y1719
X15265Y1211
X9144Y4157
X14122Y4157
X14376Y4157
X9398Y4157
T4
X4851Y28245
X889Y24689
X9169Y32207
X9906Y32207
X9169Y31420
X22631Y14529
X13081Y2819
X22631Y22149
X8712Y2946
X9677Y2896
X10744Y2870
X11963Y2870
X8357Y6553
X9373Y6553
X8357Y5791
X9373Y5791
X8865Y11887
X9119Y23063
X9119Y22301
X6325Y27127
X6833Y27889
X6833Y32461
X6833Y33477
X6833Y34493
X864Y49987
X18466Y20193
X18466Y17907
X18466Y16637
X18466Y15367
X19482Y22479
X14656Y24257
X19736Y27305
X4242Y16891
X5004Y17399
X5004Y18415
X5004Y19685
X5004Y21971
X5004Y23241
X5004Y24511
X13640Y12573
X13640Y11557
X13640Y14097
X13894Y6477
X14910Y6477
X16942Y4699
X16942Y3683
X16942Y2667
X16942Y1651
X6782Y1651
X5766Y1651
X4750Y1651
X17958Y1651
X18974Y1651
X889Y34849
X889Y32334
X914Y29794
X914Y27254
X889Y22174
X940Y19634
X914Y17120
X889Y14554
X22631Y9500
X22657Y6883
X940Y11989
X12497Y44882
X13183Y45542
X13792Y46228
X14249Y47955
X11278Y27153
X6706Y29997
X4115Y27483
X17704Y31801
X17043Y31242
X13335Y16332
X9804Y11786
X4115Y15215
X16129Y31166
X14249Y28016
X16942Y32334
X13106Y10084
X15418Y43851
X12040Y10084
X14503Y43840
X7747Y43155
X9814Y25410
X8534Y43231
X10668Y21285
X14711Y46126
X18390Y35636
X17272Y29032
X5334Y12522
X10490Y12649
X14681Y46990
X19558Y36805
X18720Y27559
X18059Y51448
X19622Y48590
X19533Y29693
X12647Y49888
X18923Y51435
X20549Y49886
X19342Y28694
X11796Y49926
X4064Y18339
X12903Y43993
X11352Y29897
X4394Y20879
X13691Y43993
X10693Y28892
X14783Y45339
X16612Y40716
X13564Y49835
X17018Y10338
X17488Y45288
X17386Y44399
X14277Y44731
X12116Y43942
X11824Y11074
X11328Y43942
X11468Y11836
X9093Y44806
X6337Y35382
X4064Y30963
X4420Y31750
X4775Y34798
X5131Y36957
X14656Y50008
X9652Y45415
X9754Y46279
X10770Y46126
X8306Y51003
X10795Y47015
X10361Y50243
X8636Y49327
X6325Y48946
X8814Y48539
X5486Y51943
X6350Y50724
X19634Y51943
X889Y47549
X889Y45009
X4470Y45695
X5182Y36093
X6477Y36576
X4801Y33909
X4115Y29947
X889Y37414
X914Y39903
X889Y42494
X8484Y44120
X7061Y39802
X7087Y38684
X9398Y44018
X6375Y41478
X22606Y47574
X889Y9423
X8001Y13437
X9601Y14834
X7239Y15291
X6756Y14630
X10617Y13640
X3861Y45060
X22581Y12014
X22631Y17069
X22581Y19634
X22581Y24689
X22581Y27280
X13335Y27127
X11811Y26619
X14300Y29007
X18974Y32512
X22581Y29820
X18694Y30810
X18161Y30201
X16612Y34925
X16408Y33172
X21387Y47549
X19533Y49733
X10973Y49733
X22631Y45034
X22581Y42469
X22555Y39929
X19177Y40716
X19177Y41504
X22555Y34849
X13564Y32766
X14630Y34849
X14580Y34163
X14478Y31852
X18974Y35027
X12598Y30861
X12598Y30048
X11379Y47600
M30