G04 EAGLE Gerber RS-274X export*
G75*
%MOMM*%
%FSLAX34Y34*%
%LPD*%
%INSolderpaste Top*%
%IPPOS*%
%AMOC8*
5,1,8,0,0,1.08239X$1,22.5*%
G01*
%ADD10C,0.317500*%
%ADD11C,0.222250*%
%ADD12C,0.200000*%
%ADD13R,1.524000X1.270000*%
%ADD14C,0.127000*%
%ADD15C,0.040638*%
%ADD16C,0.152400*%
%ADD17R,1.550000X0.600000*%
%ADD18R,1.800000X1.200000*%
%ADD19R,2.000000X0.870000*%
%ADD20R,0.600000X0.400000*%
%ADD21R,0.400000X0.600000*%
%ADD22R,0.800000X0.500000*%
%ADD23R,0.600000X1.200000*%
%ADD24R,0.900000X0.762000*%
%ADD25R,0.700000X0.700000*%
%ADD26R,0.300000X0.600000*%
%ADD27C,0.158750*%


D10*
X132016Y287337D02*
X132016Y290513D01*
X135192Y290513D01*
X135192Y287337D01*
X132016Y287337D01*
X132016Y290353D02*
X135192Y290353D01*
X132016Y281623D02*
X132016Y278447D01*
X132016Y281623D02*
X135192Y281623D01*
X135192Y278447D01*
X132016Y278447D01*
X132016Y281463D02*
X135192Y281463D01*
X62675Y134048D02*
X59499Y134048D01*
X59499Y137224D01*
X62675Y137224D01*
X62675Y134048D01*
X62675Y137064D02*
X59499Y137064D01*
X68389Y134048D02*
X71565Y134048D01*
X68389Y134048D02*
X68389Y137224D01*
X71565Y137224D01*
X71565Y134048D01*
X71565Y137064D02*
X68389Y137064D01*
D11*
X127222Y388334D02*
X127222Y395002D01*
X133890Y395002D01*
X133890Y388334D01*
X127222Y388334D01*
X127222Y390446D02*
X133890Y390446D01*
X133890Y392558D02*
X127222Y392558D01*
X127222Y394670D02*
X133890Y394670D01*
X127222Y379762D02*
X127222Y373094D01*
X127222Y379762D02*
X133890Y379762D01*
X133890Y373094D01*
X127222Y373094D01*
X127222Y375206D02*
X133890Y375206D01*
X133890Y377318D02*
X127222Y377318D01*
X127222Y379430D02*
X133890Y379430D01*
X143986Y388334D02*
X143986Y395002D01*
X150654Y395002D01*
X150654Y388334D01*
X143986Y388334D01*
X143986Y390446D02*
X150654Y390446D01*
X150654Y392558D02*
X143986Y392558D01*
X143986Y394670D02*
X150654Y394670D01*
X143986Y379762D02*
X143986Y373094D01*
X143986Y379762D02*
X150654Y379762D01*
X150654Y373094D01*
X143986Y373094D01*
X143986Y375206D02*
X150654Y375206D01*
X150654Y377318D02*
X143986Y377318D01*
X143986Y379430D02*
X150654Y379430D01*
X160750Y388334D02*
X160750Y395002D01*
X167418Y395002D01*
X167418Y388334D01*
X160750Y388334D01*
X160750Y390446D02*
X167418Y390446D01*
X167418Y392558D02*
X160750Y392558D01*
X160750Y394670D02*
X167418Y394670D01*
X160750Y379762D02*
X160750Y373094D01*
X160750Y379762D02*
X167418Y379762D01*
X167418Y373094D01*
X160750Y373094D01*
X160750Y375206D02*
X167418Y375206D01*
X167418Y377318D02*
X160750Y377318D01*
X160750Y379430D02*
X167418Y379430D01*
D10*
X79820Y330391D02*
X79820Y327215D01*
X76644Y327215D01*
X76644Y330391D01*
X79820Y330391D01*
X79820Y330231D02*
X76644Y330231D01*
X79820Y336105D02*
X79820Y339281D01*
X79820Y336105D02*
X76644Y336105D01*
X76644Y339281D01*
X79820Y339281D01*
X79820Y339121D02*
X76644Y339121D01*
X76644Y355409D02*
X76644Y358585D01*
X79820Y358585D01*
X79820Y355409D01*
X76644Y355409D01*
X76644Y358425D02*
X79820Y358425D01*
X76644Y349695D02*
X76644Y346519D01*
X76644Y349695D02*
X79820Y349695D01*
X79820Y346519D01*
X76644Y346519D01*
X76644Y349535D02*
X79820Y349535D01*
X91249Y183832D02*
X94425Y183832D01*
X91249Y183832D02*
X91249Y187008D01*
X94425Y187008D01*
X94425Y183832D01*
X94425Y186848D02*
X91249Y186848D01*
X100139Y183832D02*
X103315Y183832D01*
X100139Y183832D02*
X100139Y187008D01*
X103315Y187008D01*
X103315Y183832D01*
X103315Y186848D02*
X100139Y186848D01*
D11*
X101378Y244380D02*
X94710Y244380D01*
X101378Y244380D02*
X101378Y237712D01*
X94710Y237712D01*
X94710Y244380D01*
X94710Y239824D02*
X101378Y239824D01*
X101378Y241936D02*
X94710Y241936D01*
X94710Y244048D02*
X101378Y244048D01*
X86138Y244380D02*
X79470Y244380D01*
X86138Y244380D02*
X86138Y237712D01*
X79470Y237712D01*
X79470Y244380D01*
X79470Y239824D02*
X86138Y239824D01*
X86138Y241936D02*
X79470Y241936D01*
X79470Y244048D02*
X86138Y244048D01*
D10*
X59500Y394779D02*
X59500Y397955D01*
X59500Y394779D02*
X56324Y394779D01*
X56324Y397955D01*
X59500Y397955D01*
X59500Y397795D02*
X56324Y397795D01*
X59500Y403669D02*
X59500Y406845D01*
X59500Y403669D02*
X56324Y403669D01*
X56324Y406845D01*
X59500Y406845D01*
X59500Y406685D02*
X56324Y406685D01*
X56324Y388049D02*
X56324Y384873D01*
X56324Y388049D02*
X59500Y388049D01*
X59500Y384873D01*
X56324Y384873D01*
X56324Y387889D02*
X59500Y387889D01*
X56324Y379159D02*
X56324Y375983D01*
X56324Y379159D02*
X59500Y379159D01*
X59500Y375983D01*
X56324Y375983D01*
X56324Y378999D02*
X59500Y378999D01*
D12*
X114506Y155576D02*
X114506Y147576D01*
X108506Y147576D01*
X108506Y155576D01*
X114506Y155576D01*
X114506Y149476D02*
X108506Y149476D01*
X108506Y151376D02*
X114506Y151376D01*
X114506Y153276D02*
X108506Y153276D01*
X108506Y155176D02*
X114506Y155176D01*
X114506Y171576D02*
X114506Y179576D01*
X114506Y171576D02*
X108506Y171576D01*
X108506Y179576D01*
X114506Y179576D01*
X114506Y173476D02*
X108506Y173476D01*
X108506Y175376D02*
X114506Y175376D01*
X114506Y177276D02*
X108506Y177276D01*
X108506Y179176D02*
X114506Y179176D01*
D13*
X95504Y79502D03*
X95504Y104902D03*
D14*
X91946Y10332D02*
X91944Y10232D01*
X91938Y10133D01*
X91928Y10033D01*
X91915Y9935D01*
X91897Y9836D01*
X91876Y9739D01*
X91851Y9643D01*
X91822Y9547D01*
X91789Y9453D01*
X91753Y9360D01*
X91713Y9269D01*
X91669Y9179D01*
X91622Y9091D01*
X91572Y9005D01*
X91518Y8921D01*
X91461Y8839D01*
X91401Y8760D01*
X91337Y8682D01*
X91271Y8608D01*
X91202Y8536D01*
X91130Y8467D01*
X91056Y8401D01*
X90978Y8337D01*
X90899Y8277D01*
X90817Y8220D01*
X90733Y8166D01*
X90647Y8116D01*
X90559Y8069D01*
X90469Y8025D01*
X90378Y7985D01*
X90285Y7949D01*
X90191Y7916D01*
X90095Y7887D01*
X89999Y7862D01*
X89902Y7841D01*
X89803Y7823D01*
X89705Y7810D01*
X89605Y7800D01*
X89506Y7794D01*
X89406Y7792D01*
X79754Y7792D01*
X79654Y7794D01*
X79555Y7800D01*
X79455Y7810D01*
X79357Y7823D01*
X79258Y7841D01*
X79161Y7862D01*
X79065Y7887D01*
X78969Y7916D01*
X78875Y7949D01*
X78782Y7985D01*
X78691Y8025D01*
X78601Y8069D01*
X78513Y8116D01*
X78427Y8166D01*
X78343Y8220D01*
X78261Y8277D01*
X78182Y8337D01*
X78104Y8401D01*
X78030Y8467D01*
X77958Y8536D01*
X77889Y8608D01*
X77823Y8682D01*
X77759Y8760D01*
X77699Y8839D01*
X77642Y8921D01*
X77588Y9005D01*
X77538Y9091D01*
X77491Y9179D01*
X77447Y9269D01*
X77407Y9360D01*
X77371Y9453D01*
X77338Y9547D01*
X77309Y9643D01*
X77284Y9739D01*
X77263Y9836D01*
X77245Y9935D01*
X77232Y10033D01*
X77222Y10133D01*
X77216Y10232D01*
X77214Y10332D01*
X77214Y18968D01*
X77216Y19068D01*
X77222Y19167D01*
X77232Y19267D01*
X77245Y19365D01*
X77263Y19464D01*
X77284Y19561D01*
X77309Y19657D01*
X77338Y19753D01*
X77371Y19847D01*
X77407Y19940D01*
X77447Y20031D01*
X77491Y20121D01*
X77538Y20209D01*
X77588Y20295D01*
X77642Y20379D01*
X77699Y20461D01*
X77759Y20540D01*
X77823Y20618D01*
X77889Y20692D01*
X77958Y20764D01*
X78030Y20833D01*
X78104Y20899D01*
X78182Y20963D01*
X78261Y21023D01*
X78343Y21080D01*
X78427Y21134D01*
X78513Y21184D01*
X78601Y21231D01*
X78691Y21275D01*
X78782Y21315D01*
X78875Y21351D01*
X78969Y21384D01*
X79065Y21413D01*
X79161Y21438D01*
X79258Y21459D01*
X79357Y21477D01*
X79455Y21490D01*
X79555Y21500D01*
X79654Y21506D01*
X79754Y21508D01*
X89406Y21508D01*
X89506Y21506D01*
X89605Y21500D01*
X89705Y21490D01*
X89803Y21477D01*
X89902Y21459D01*
X89999Y21438D01*
X90095Y21413D01*
X90191Y21384D01*
X90285Y21351D01*
X90378Y21315D01*
X90469Y21275D01*
X90559Y21231D01*
X90647Y21184D01*
X90733Y21134D01*
X90817Y21080D01*
X90899Y21023D01*
X90978Y20963D01*
X91056Y20899D01*
X91130Y20833D01*
X91202Y20764D01*
X91271Y20692D01*
X91337Y20618D01*
X91401Y20540D01*
X91461Y20461D01*
X91518Y20379D01*
X91572Y20295D01*
X91622Y20209D01*
X91669Y20121D01*
X91713Y20031D01*
X91753Y19940D01*
X91789Y19847D01*
X91822Y19753D01*
X91851Y19657D01*
X91876Y19561D01*
X91897Y19464D01*
X91915Y19365D01*
X91928Y19267D01*
X91938Y19167D01*
X91944Y19068D01*
X91946Y18968D01*
X91946Y10332D01*
X78230Y8808D02*
X78230Y20492D01*
X86866Y21254D02*
X86866Y8300D01*
X86866Y21254D02*
X87882Y21254D01*
X88136Y21254D01*
X87882Y21254D02*
X87882Y8300D01*
X89152Y8300D01*
X89152Y21000D01*
X90168Y21000D01*
X90168Y8300D01*
X90676Y8300D01*
X90676Y21000D01*
X143508Y18968D02*
X143510Y19068D01*
X143516Y19167D01*
X143526Y19267D01*
X143539Y19365D01*
X143557Y19464D01*
X143578Y19561D01*
X143603Y19657D01*
X143632Y19753D01*
X143665Y19847D01*
X143701Y19940D01*
X143741Y20031D01*
X143785Y20121D01*
X143832Y20209D01*
X143882Y20295D01*
X143936Y20379D01*
X143993Y20461D01*
X144053Y20540D01*
X144117Y20618D01*
X144183Y20692D01*
X144252Y20764D01*
X144324Y20833D01*
X144398Y20899D01*
X144476Y20963D01*
X144555Y21023D01*
X144637Y21080D01*
X144721Y21134D01*
X144807Y21184D01*
X144895Y21231D01*
X144985Y21275D01*
X145076Y21315D01*
X145169Y21351D01*
X145263Y21384D01*
X145359Y21413D01*
X145455Y21438D01*
X145552Y21459D01*
X145651Y21477D01*
X145749Y21490D01*
X145849Y21500D01*
X145948Y21506D01*
X146048Y21508D01*
X155192Y21508D01*
X155292Y21506D01*
X155391Y21500D01*
X155491Y21490D01*
X155589Y21477D01*
X155688Y21459D01*
X155785Y21438D01*
X155881Y21413D01*
X155977Y21384D01*
X156071Y21351D01*
X156164Y21315D01*
X156255Y21275D01*
X156345Y21231D01*
X156433Y21184D01*
X156519Y21134D01*
X156603Y21080D01*
X156685Y21023D01*
X156764Y20963D01*
X156842Y20899D01*
X156916Y20833D01*
X156988Y20764D01*
X157057Y20692D01*
X157123Y20618D01*
X157187Y20540D01*
X157247Y20461D01*
X157304Y20379D01*
X157358Y20295D01*
X157408Y20209D01*
X157455Y20121D01*
X157499Y20031D01*
X157539Y19940D01*
X157575Y19847D01*
X157608Y19753D01*
X157637Y19657D01*
X157662Y19561D01*
X157683Y19464D01*
X157701Y19365D01*
X157714Y19267D01*
X157724Y19167D01*
X157730Y19068D01*
X157732Y18968D01*
X157732Y10332D01*
X157730Y10232D01*
X157724Y10133D01*
X157714Y10033D01*
X157701Y9935D01*
X157683Y9836D01*
X157662Y9739D01*
X157637Y9643D01*
X157608Y9547D01*
X157575Y9453D01*
X157539Y9360D01*
X157499Y9269D01*
X157455Y9179D01*
X157408Y9091D01*
X157358Y9005D01*
X157304Y8921D01*
X157247Y8839D01*
X157187Y8760D01*
X157123Y8682D01*
X157057Y8608D01*
X156988Y8536D01*
X156916Y8467D01*
X156842Y8401D01*
X156764Y8337D01*
X156685Y8277D01*
X156603Y8220D01*
X156519Y8166D01*
X156433Y8116D01*
X156345Y8069D01*
X156255Y8025D01*
X156164Y7985D01*
X156071Y7949D01*
X155977Y7916D01*
X155881Y7887D01*
X155785Y7862D01*
X155688Y7841D01*
X155589Y7823D01*
X155491Y7810D01*
X155391Y7800D01*
X155292Y7794D01*
X155192Y7792D01*
X146048Y7792D01*
X145948Y7794D01*
X145849Y7800D01*
X145749Y7810D01*
X145651Y7823D01*
X145552Y7841D01*
X145455Y7862D01*
X145359Y7887D01*
X145263Y7916D01*
X145169Y7949D01*
X145076Y7985D01*
X144985Y8025D01*
X144895Y8069D01*
X144807Y8116D01*
X144721Y8166D01*
X144637Y8220D01*
X144555Y8277D01*
X144476Y8337D01*
X144398Y8401D01*
X144324Y8467D01*
X144252Y8536D01*
X144183Y8608D01*
X144117Y8682D01*
X144053Y8760D01*
X143993Y8839D01*
X143936Y8921D01*
X143882Y9005D01*
X143832Y9091D01*
X143785Y9179D01*
X143741Y9269D01*
X143701Y9360D01*
X143665Y9453D01*
X143632Y9547D01*
X143603Y9643D01*
X143578Y9739D01*
X143557Y9836D01*
X143539Y9935D01*
X143526Y10033D01*
X143516Y10133D01*
X143510Y10232D01*
X143508Y10332D01*
X143508Y18968D01*
X156716Y20492D02*
X156716Y8808D01*
X144524Y8808D02*
X144524Y20492D01*
X144524Y8808D02*
X145794Y8808D01*
X145794Y20492D01*
X147064Y20492D01*
X147064Y8554D01*
X148080Y8554D01*
X148111Y8556D01*
X148141Y8561D01*
X148170Y8571D01*
X148198Y8583D01*
X148224Y8599D01*
X148248Y8618D01*
X148270Y8640D01*
X148289Y8664D01*
X148305Y8690D01*
X148317Y8718D01*
X148327Y8747D01*
X148332Y8777D01*
X148334Y8808D01*
X148334Y20746D01*
X99312Y39796D02*
X99310Y39696D01*
X99304Y39597D01*
X99294Y39497D01*
X99281Y39399D01*
X99263Y39300D01*
X99242Y39203D01*
X99217Y39107D01*
X99188Y39011D01*
X99155Y38917D01*
X99119Y38824D01*
X99079Y38733D01*
X99035Y38643D01*
X98988Y38555D01*
X98938Y38469D01*
X98884Y38385D01*
X98827Y38303D01*
X98767Y38224D01*
X98703Y38146D01*
X98637Y38072D01*
X98568Y38000D01*
X98496Y37931D01*
X98422Y37865D01*
X98344Y37801D01*
X98265Y37741D01*
X98183Y37684D01*
X98099Y37630D01*
X98013Y37580D01*
X97925Y37533D01*
X97835Y37489D01*
X97744Y37449D01*
X97651Y37413D01*
X97557Y37380D01*
X97461Y37351D01*
X97365Y37326D01*
X97268Y37305D01*
X97169Y37287D01*
X97071Y37274D01*
X96971Y37264D01*
X96872Y37258D01*
X96772Y37256D01*
X88644Y37256D01*
X88544Y37258D01*
X88445Y37264D01*
X88345Y37274D01*
X88247Y37287D01*
X88148Y37305D01*
X88051Y37326D01*
X87955Y37351D01*
X87859Y37380D01*
X87765Y37413D01*
X87672Y37449D01*
X87581Y37489D01*
X87491Y37533D01*
X87403Y37580D01*
X87317Y37630D01*
X87233Y37684D01*
X87151Y37741D01*
X87072Y37801D01*
X86994Y37865D01*
X86920Y37931D01*
X86848Y38000D01*
X86779Y38072D01*
X86713Y38146D01*
X86649Y38224D01*
X86589Y38303D01*
X86532Y38385D01*
X86478Y38469D01*
X86428Y38555D01*
X86381Y38643D01*
X86337Y38733D01*
X86297Y38824D01*
X86261Y38917D01*
X86228Y39011D01*
X86199Y39107D01*
X86174Y39203D01*
X86153Y39300D01*
X86135Y39399D01*
X86122Y39497D01*
X86112Y39597D01*
X86106Y39696D01*
X86104Y39796D01*
X86104Y43352D01*
X86106Y43452D01*
X86112Y43551D01*
X86122Y43651D01*
X86135Y43749D01*
X86153Y43848D01*
X86174Y43945D01*
X86199Y44041D01*
X86228Y44137D01*
X86261Y44231D01*
X86297Y44324D01*
X86337Y44415D01*
X86381Y44505D01*
X86428Y44593D01*
X86478Y44679D01*
X86532Y44763D01*
X86589Y44845D01*
X86649Y44924D01*
X86713Y45002D01*
X86779Y45076D01*
X86848Y45148D01*
X86920Y45217D01*
X86994Y45283D01*
X87072Y45347D01*
X87151Y45407D01*
X87233Y45464D01*
X87317Y45518D01*
X87403Y45568D01*
X87491Y45615D01*
X87581Y45659D01*
X87672Y45699D01*
X87765Y45735D01*
X87859Y45768D01*
X87955Y45797D01*
X88051Y45822D01*
X88148Y45843D01*
X88247Y45861D01*
X88345Y45874D01*
X88445Y45884D01*
X88544Y45890D01*
X88644Y45892D01*
X96772Y45892D01*
X96872Y45890D01*
X96971Y45884D01*
X97071Y45874D01*
X97169Y45861D01*
X97268Y45843D01*
X97365Y45822D01*
X97461Y45797D01*
X97557Y45768D01*
X97651Y45735D01*
X97744Y45699D01*
X97835Y45659D01*
X97925Y45615D01*
X98013Y45568D01*
X98099Y45518D01*
X98183Y45464D01*
X98265Y45407D01*
X98344Y45347D01*
X98422Y45283D01*
X98496Y45217D01*
X98568Y45148D01*
X98637Y45076D01*
X98703Y45002D01*
X98767Y44924D01*
X98827Y44845D01*
X98884Y44763D01*
X98938Y44679D01*
X98988Y44593D01*
X99035Y44505D01*
X99079Y44415D01*
X99119Y44324D01*
X99155Y44231D01*
X99188Y44137D01*
X99217Y44041D01*
X99242Y43945D01*
X99263Y43848D01*
X99281Y43749D01*
X99294Y43651D01*
X99304Y43551D01*
X99310Y43452D01*
X99312Y43352D01*
X99312Y39796D01*
X98042Y39542D02*
X98040Y39473D01*
X98035Y39405D01*
X98025Y39337D01*
X98012Y39269D01*
X97996Y39202D01*
X97976Y39136D01*
X97952Y39072D01*
X97925Y39009D01*
X97894Y38947D01*
X97860Y38887D01*
X97823Y38829D01*
X97783Y38773D01*
X97740Y38720D01*
X97694Y38669D01*
X97645Y38620D01*
X97594Y38574D01*
X97541Y38531D01*
X97485Y38491D01*
X97427Y38454D01*
X97367Y38420D01*
X97305Y38389D01*
X97242Y38362D01*
X97178Y38338D01*
X97112Y38318D01*
X97045Y38302D01*
X96977Y38289D01*
X96909Y38279D01*
X96841Y38274D01*
X96772Y38272D01*
X98042Y39542D02*
X98042Y43606D01*
X98040Y43675D01*
X98035Y43743D01*
X98025Y43811D01*
X98012Y43879D01*
X97996Y43946D01*
X97976Y44012D01*
X97952Y44076D01*
X97925Y44139D01*
X97894Y44201D01*
X97860Y44261D01*
X97823Y44319D01*
X97783Y44375D01*
X97740Y44428D01*
X97694Y44479D01*
X97645Y44528D01*
X97594Y44574D01*
X97541Y44617D01*
X97485Y44657D01*
X97427Y44694D01*
X97367Y44728D01*
X97305Y44759D01*
X97242Y44786D01*
X97178Y44810D01*
X97112Y44830D01*
X97045Y44846D01*
X96977Y44859D01*
X96909Y44869D01*
X96841Y44874D01*
X96772Y44876D01*
X88644Y44876D02*
X88567Y44874D01*
X88490Y44868D01*
X88413Y44858D01*
X88337Y44845D01*
X88262Y44827D01*
X88188Y44806D01*
X88115Y44781D01*
X88043Y44752D01*
X87973Y44720D01*
X87904Y44685D01*
X87838Y44645D01*
X87773Y44603D01*
X87711Y44557D01*
X87651Y44508D01*
X87594Y44457D01*
X87539Y44402D01*
X87488Y44345D01*
X87439Y44285D01*
X87393Y44223D01*
X87351Y44158D01*
X87311Y44092D01*
X87276Y44023D01*
X87244Y43953D01*
X87215Y43881D01*
X87190Y43808D01*
X87169Y43734D01*
X87151Y43659D01*
X87138Y43583D01*
X87128Y43506D01*
X87122Y43429D01*
X87120Y43352D01*
X87374Y39542D01*
X87376Y39473D01*
X87381Y39405D01*
X87391Y39337D01*
X87404Y39269D01*
X87420Y39202D01*
X87440Y39136D01*
X87464Y39072D01*
X87491Y39009D01*
X87522Y38947D01*
X87556Y38887D01*
X87593Y38829D01*
X87633Y38773D01*
X87676Y38720D01*
X87722Y38669D01*
X87771Y38620D01*
X87822Y38574D01*
X87875Y38531D01*
X87931Y38491D01*
X87989Y38454D01*
X88049Y38420D01*
X88111Y38389D01*
X88174Y38362D01*
X88238Y38338D01*
X88304Y38318D01*
X88371Y38302D01*
X88439Y38289D01*
X88507Y38279D01*
X88575Y38274D01*
X88644Y38272D01*
X146556Y37256D02*
X146656Y37258D01*
X146755Y37264D01*
X146855Y37274D01*
X146953Y37287D01*
X147052Y37305D01*
X147149Y37326D01*
X147245Y37351D01*
X147341Y37380D01*
X147435Y37413D01*
X147528Y37449D01*
X147619Y37489D01*
X147709Y37533D01*
X147797Y37580D01*
X147883Y37630D01*
X147967Y37684D01*
X148049Y37741D01*
X148128Y37801D01*
X148206Y37865D01*
X148280Y37931D01*
X148352Y38000D01*
X148421Y38072D01*
X148487Y38146D01*
X148551Y38224D01*
X148611Y38303D01*
X148668Y38385D01*
X148722Y38469D01*
X148772Y38555D01*
X148819Y38643D01*
X148863Y38733D01*
X148903Y38824D01*
X148939Y38917D01*
X148972Y39011D01*
X149001Y39107D01*
X149026Y39203D01*
X149047Y39300D01*
X149065Y39399D01*
X149078Y39497D01*
X149088Y39597D01*
X149094Y39696D01*
X149096Y39796D01*
X146556Y37256D02*
X138428Y37256D01*
X138328Y37258D01*
X138229Y37264D01*
X138129Y37274D01*
X138031Y37287D01*
X137932Y37305D01*
X137835Y37326D01*
X137739Y37351D01*
X137643Y37380D01*
X137549Y37413D01*
X137456Y37449D01*
X137365Y37489D01*
X137275Y37533D01*
X137187Y37580D01*
X137101Y37630D01*
X137017Y37684D01*
X136935Y37741D01*
X136856Y37801D01*
X136778Y37865D01*
X136704Y37931D01*
X136632Y38000D01*
X136563Y38072D01*
X136497Y38146D01*
X136433Y38224D01*
X136373Y38303D01*
X136316Y38385D01*
X136262Y38469D01*
X136212Y38555D01*
X136165Y38643D01*
X136121Y38733D01*
X136081Y38824D01*
X136045Y38917D01*
X136012Y39011D01*
X135983Y39107D01*
X135958Y39203D01*
X135937Y39300D01*
X135919Y39399D01*
X135906Y39497D01*
X135896Y39597D01*
X135890Y39696D01*
X135888Y39796D01*
X135888Y43352D01*
X135890Y43452D01*
X135896Y43551D01*
X135906Y43651D01*
X135919Y43749D01*
X135937Y43848D01*
X135958Y43945D01*
X135983Y44041D01*
X136012Y44137D01*
X136045Y44231D01*
X136081Y44324D01*
X136121Y44415D01*
X136165Y44505D01*
X136212Y44593D01*
X136262Y44679D01*
X136316Y44763D01*
X136373Y44845D01*
X136433Y44924D01*
X136497Y45002D01*
X136563Y45076D01*
X136632Y45148D01*
X136704Y45217D01*
X136778Y45283D01*
X136856Y45347D01*
X136935Y45407D01*
X137017Y45464D01*
X137101Y45518D01*
X137187Y45568D01*
X137275Y45615D01*
X137365Y45659D01*
X137456Y45699D01*
X137549Y45735D01*
X137643Y45768D01*
X137739Y45797D01*
X137835Y45822D01*
X137932Y45843D01*
X138031Y45861D01*
X138129Y45874D01*
X138229Y45884D01*
X138328Y45890D01*
X138428Y45892D01*
X146556Y45892D01*
X146656Y45890D01*
X146755Y45884D01*
X146855Y45874D01*
X146953Y45861D01*
X147052Y45843D01*
X147149Y45822D01*
X147245Y45797D01*
X147341Y45768D01*
X147435Y45735D01*
X147528Y45699D01*
X147619Y45659D01*
X147709Y45615D01*
X147797Y45568D01*
X147883Y45518D01*
X147967Y45464D01*
X148049Y45407D01*
X148128Y45347D01*
X148206Y45283D01*
X148280Y45217D01*
X148352Y45148D01*
X148421Y45076D01*
X148487Y45002D01*
X148551Y44924D01*
X148611Y44845D01*
X148668Y44763D01*
X148722Y44679D01*
X148772Y44593D01*
X148819Y44505D01*
X148863Y44415D01*
X148903Y44324D01*
X148939Y44231D01*
X148972Y44137D01*
X149001Y44041D01*
X149026Y43945D01*
X149047Y43848D01*
X149065Y43749D01*
X149078Y43651D01*
X149088Y43551D01*
X149094Y43452D01*
X149096Y43352D01*
X149096Y39796D01*
X138174Y44622D02*
X138105Y44620D01*
X138037Y44615D01*
X137969Y44605D01*
X137901Y44592D01*
X137834Y44576D01*
X137768Y44556D01*
X137704Y44532D01*
X137641Y44505D01*
X137579Y44474D01*
X137519Y44440D01*
X137461Y44403D01*
X137405Y44363D01*
X137352Y44320D01*
X137301Y44274D01*
X137252Y44225D01*
X137206Y44174D01*
X137163Y44121D01*
X137123Y44065D01*
X137086Y44007D01*
X137052Y43947D01*
X137021Y43885D01*
X136994Y43822D01*
X136970Y43758D01*
X136950Y43692D01*
X136934Y43625D01*
X136921Y43557D01*
X136911Y43489D01*
X136906Y43421D01*
X136904Y43352D01*
X136904Y39796D01*
X136906Y39727D01*
X136911Y39659D01*
X136921Y39591D01*
X136934Y39523D01*
X136950Y39456D01*
X136970Y39390D01*
X136994Y39326D01*
X137021Y39263D01*
X137052Y39201D01*
X137086Y39141D01*
X137123Y39083D01*
X137163Y39027D01*
X137206Y38974D01*
X137252Y38923D01*
X137301Y38874D01*
X137352Y38828D01*
X137405Y38785D01*
X137461Y38745D01*
X137519Y38708D01*
X137579Y38674D01*
X137641Y38643D01*
X137704Y38616D01*
X137768Y38592D01*
X137834Y38572D01*
X137901Y38556D01*
X137969Y38543D01*
X138037Y38533D01*
X138105Y38528D01*
X138174Y38526D01*
X146556Y44876D02*
X146625Y44874D01*
X146693Y44869D01*
X146761Y44859D01*
X146829Y44846D01*
X146896Y44830D01*
X146962Y44810D01*
X147026Y44786D01*
X147089Y44759D01*
X147151Y44728D01*
X147211Y44694D01*
X147269Y44657D01*
X147325Y44617D01*
X147378Y44574D01*
X147429Y44528D01*
X147478Y44479D01*
X147524Y44428D01*
X147567Y44375D01*
X147607Y44319D01*
X147644Y44261D01*
X147678Y44201D01*
X147709Y44139D01*
X147736Y44076D01*
X147760Y44012D01*
X147780Y43946D01*
X147796Y43879D01*
X147809Y43811D01*
X147819Y43743D01*
X147824Y43675D01*
X147826Y43606D01*
X147826Y39542D01*
X147824Y39473D01*
X147819Y39405D01*
X147809Y39337D01*
X147796Y39269D01*
X147780Y39202D01*
X147760Y39136D01*
X147736Y39072D01*
X147709Y39009D01*
X147678Y38947D01*
X147644Y38887D01*
X147607Y38829D01*
X147567Y38773D01*
X147524Y38720D01*
X147478Y38669D01*
X147429Y38620D01*
X147378Y38574D01*
X147325Y38531D01*
X147269Y38491D01*
X147211Y38454D01*
X147151Y38420D01*
X147089Y38389D01*
X147026Y38362D01*
X146962Y38338D01*
X146896Y38318D01*
X146829Y38302D01*
X146761Y38289D01*
X146693Y38279D01*
X146625Y38274D01*
X146556Y38272D01*
D15*
X106221Y35046D02*
X102563Y35046D01*
X102563Y48102D01*
X106221Y48102D01*
X106221Y35046D01*
X106221Y35432D02*
X102563Y35432D01*
X102563Y35818D02*
X106221Y35818D01*
X106221Y36204D02*
X102563Y36204D01*
X102563Y36590D02*
X106221Y36590D01*
X106221Y36976D02*
X102563Y36976D01*
X102563Y37362D02*
X106221Y37362D01*
X106221Y37748D02*
X102563Y37748D01*
X102563Y38134D02*
X106221Y38134D01*
X106221Y38520D02*
X102563Y38520D01*
X102563Y38906D02*
X106221Y38906D01*
X106221Y39292D02*
X102563Y39292D01*
X102563Y39678D02*
X106221Y39678D01*
X106221Y40064D02*
X102563Y40064D01*
X102563Y40450D02*
X106221Y40450D01*
X106221Y40836D02*
X102563Y40836D01*
X102563Y41222D02*
X106221Y41222D01*
X106221Y41608D02*
X102563Y41608D01*
X102563Y41994D02*
X106221Y41994D01*
X106221Y42380D02*
X102563Y42380D01*
X102563Y42766D02*
X106221Y42766D01*
X106221Y43152D02*
X102563Y43152D01*
X102563Y43538D02*
X106221Y43538D01*
X106221Y43924D02*
X102563Y43924D01*
X102563Y44310D02*
X106221Y44310D01*
X106221Y44696D02*
X102563Y44696D01*
X102563Y45082D02*
X106221Y45082D01*
X106221Y45468D02*
X102563Y45468D01*
X102563Y45854D02*
X106221Y45854D01*
X106221Y46240D02*
X102563Y46240D01*
X102563Y46626D02*
X106221Y46626D01*
X106221Y47012D02*
X102563Y47012D01*
X102563Y47398D02*
X106221Y47398D01*
X106221Y47784D02*
X102563Y47784D01*
X109167Y35046D02*
X112825Y35046D01*
X109167Y35046D02*
X109167Y48102D01*
X112825Y48102D01*
X112825Y35046D01*
X112825Y35432D02*
X109167Y35432D01*
X109167Y35818D02*
X112825Y35818D01*
X112825Y36204D02*
X109167Y36204D01*
X109167Y36590D02*
X112825Y36590D01*
X112825Y36976D02*
X109167Y36976D01*
X109167Y37362D02*
X112825Y37362D01*
X112825Y37748D02*
X109167Y37748D01*
X109167Y38134D02*
X112825Y38134D01*
X112825Y38520D02*
X109167Y38520D01*
X109167Y38906D02*
X112825Y38906D01*
X112825Y39292D02*
X109167Y39292D01*
X109167Y39678D02*
X112825Y39678D01*
X112825Y40064D02*
X109167Y40064D01*
X109167Y40450D02*
X112825Y40450D01*
X112825Y40836D02*
X109167Y40836D01*
X109167Y41222D02*
X112825Y41222D01*
X112825Y41608D02*
X109167Y41608D01*
X109167Y41994D02*
X112825Y41994D01*
X112825Y42380D02*
X109167Y42380D01*
X109167Y42766D02*
X112825Y42766D01*
X112825Y43152D02*
X109167Y43152D01*
X109167Y43538D02*
X112825Y43538D01*
X112825Y43924D02*
X109167Y43924D01*
X109167Y44310D02*
X112825Y44310D01*
X112825Y44696D02*
X109167Y44696D01*
X109167Y45082D02*
X112825Y45082D01*
X112825Y45468D02*
X109167Y45468D01*
X109167Y45854D02*
X112825Y45854D01*
X112825Y46240D02*
X109167Y46240D01*
X109167Y46626D02*
X112825Y46626D01*
X112825Y47012D02*
X109167Y47012D01*
X109167Y47398D02*
X112825Y47398D01*
X112825Y47784D02*
X109167Y47784D01*
X115771Y35046D02*
X119429Y35046D01*
X115771Y35046D02*
X115771Y48102D01*
X119429Y48102D01*
X119429Y35046D01*
X119429Y35432D02*
X115771Y35432D01*
X115771Y35818D02*
X119429Y35818D01*
X119429Y36204D02*
X115771Y36204D01*
X115771Y36590D02*
X119429Y36590D01*
X119429Y36976D02*
X115771Y36976D01*
X115771Y37362D02*
X119429Y37362D01*
X119429Y37748D02*
X115771Y37748D01*
X115771Y38134D02*
X119429Y38134D01*
X119429Y38520D02*
X115771Y38520D01*
X115771Y38906D02*
X119429Y38906D01*
X119429Y39292D02*
X115771Y39292D01*
X115771Y39678D02*
X119429Y39678D01*
X119429Y40064D02*
X115771Y40064D01*
X115771Y40450D02*
X119429Y40450D01*
X119429Y40836D02*
X115771Y40836D01*
X115771Y41222D02*
X119429Y41222D01*
X119429Y41608D02*
X115771Y41608D01*
X115771Y41994D02*
X119429Y41994D01*
X119429Y42380D02*
X115771Y42380D01*
X115771Y42766D02*
X119429Y42766D01*
X119429Y43152D02*
X115771Y43152D01*
X115771Y43538D02*
X119429Y43538D01*
X119429Y43924D02*
X115771Y43924D01*
X115771Y44310D02*
X119429Y44310D01*
X119429Y44696D02*
X115771Y44696D01*
X115771Y45082D02*
X119429Y45082D01*
X119429Y45468D02*
X115771Y45468D01*
X115771Y45854D02*
X119429Y45854D01*
X119429Y46240D02*
X115771Y46240D01*
X115771Y46626D02*
X119429Y46626D01*
X119429Y47012D02*
X115771Y47012D01*
X115771Y47398D02*
X119429Y47398D01*
X119429Y47784D02*
X115771Y47784D01*
X122375Y35046D02*
X126033Y35046D01*
X122375Y35046D02*
X122375Y48102D01*
X126033Y48102D01*
X126033Y35046D01*
X126033Y35432D02*
X122375Y35432D01*
X122375Y35818D02*
X126033Y35818D01*
X126033Y36204D02*
X122375Y36204D01*
X122375Y36590D02*
X126033Y36590D01*
X126033Y36976D02*
X122375Y36976D01*
X122375Y37362D02*
X126033Y37362D01*
X126033Y37748D02*
X122375Y37748D01*
X122375Y38134D02*
X126033Y38134D01*
X126033Y38520D02*
X122375Y38520D01*
X122375Y38906D02*
X126033Y38906D01*
X126033Y39292D02*
X122375Y39292D01*
X122375Y39678D02*
X126033Y39678D01*
X126033Y40064D02*
X122375Y40064D01*
X122375Y40450D02*
X126033Y40450D01*
X126033Y40836D02*
X122375Y40836D01*
X122375Y41222D02*
X126033Y41222D01*
X126033Y41608D02*
X122375Y41608D01*
X122375Y41994D02*
X126033Y41994D01*
X126033Y42380D02*
X122375Y42380D01*
X122375Y42766D02*
X126033Y42766D01*
X126033Y43152D02*
X122375Y43152D01*
X122375Y43538D02*
X126033Y43538D01*
X126033Y43924D02*
X122375Y43924D01*
X122375Y44310D02*
X126033Y44310D01*
X126033Y44696D02*
X122375Y44696D01*
X122375Y45082D02*
X126033Y45082D01*
X126033Y45468D02*
X122375Y45468D01*
X122375Y45854D02*
X126033Y45854D01*
X126033Y46240D02*
X122375Y46240D01*
X122375Y46626D02*
X126033Y46626D01*
X126033Y47012D02*
X122375Y47012D01*
X122375Y47398D02*
X126033Y47398D01*
X126033Y47784D02*
X122375Y47784D01*
X128979Y35046D02*
X132637Y35046D01*
X128979Y35046D02*
X128979Y48102D01*
X132637Y48102D01*
X132637Y35046D01*
X132637Y35432D02*
X128979Y35432D01*
X128979Y35818D02*
X132637Y35818D01*
X132637Y36204D02*
X128979Y36204D01*
X128979Y36590D02*
X132637Y36590D01*
X132637Y36976D02*
X128979Y36976D01*
X128979Y37362D02*
X132637Y37362D01*
X132637Y37748D02*
X128979Y37748D01*
X128979Y38134D02*
X132637Y38134D01*
X132637Y38520D02*
X128979Y38520D01*
X128979Y38906D02*
X132637Y38906D01*
X132637Y39292D02*
X128979Y39292D01*
X128979Y39678D02*
X132637Y39678D01*
X132637Y40064D02*
X128979Y40064D01*
X128979Y40450D02*
X132637Y40450D01*
X132637Y40836D02*
X128979Y40836D01*
X128979Y41222D02*
X132637Y41222D01*
X132637Y41608D02*
X128979Y41608D01*
X128979Y41994D02*
X132637Y41994D01*
X132637Y42380D02*
X128979Y42380D01*
X128979Y42766D02*
X132637Y42766D01*
X132637Y43152D02*
X128979Y43152D01*
X128979Y43538D02*
X132637Y43538D01*
X132637Y43924D02*
X128979Y43924D01*
X128979Y44310D02*
X132637Y44310D01*
X132637Y44696D02*
X128979Y44696D01*
X128979Y45082D02*
X132637Y45082D01*
X132637Y45468D02*
X128979Y45468D01*
X128979Y45854D02*
X132637Y45854D01*
X132637Y46240D02*
X128979Y46240D01*
X128979Y46626D02*
X132637Y46626D01*
X132637Y47012D02*
X128979Y47012D01*
X128979Y47398D02*
X132637Y47398D01*
X132637Y47784D02*
X128979Y47784D01*
D16*
X114298Y7792D02*
X100582Y7792D01*
X100582Y21508D01*
X114298Y21508D01*
X114298Y7792D01*
X114298Y9240D02*
X100582Y9240D01*
X100582Y10688D02*
X114298Y10688D01*
X114298Y12136D02*
X100582Y12136D01*
X100582Y13584D02*
X114298Y13584D01*
X114298Y15032D02*
X100582Y15032D01*
X100582Y16480D02*
X114298Y16480D01*
X114298Y17928D02*
X100582Y17928D01*
X100582Y19376D02*
X114298Y19376D01*
X114298Y20824D02*
X100582Y20824D01*
X120902Y7792D02*
X134618Y7792D01*
X120902Y7792D02*
X120902Y21508D01*
X134618Y21508D01*
X134618Y7792D01*
X134618Y9240D02*
X120902Y9240D01*
X120902Y10688D02*
X134618Y10688D01*
X134618Y12136D02*
X120902Y12136D01*
X120902Y13584D02*
X134618Y13584D01*
X134618Y15032D02*
X120902Y15032D01*
X120902Y16480D02*
X134618Y16480D01*
X134618Y17928D02*
X120902Y17928D01*
X120902Y19376D02*
X134618Y19376D01*
X134618Y20824D02*
X120902Y20824D01*
D17*
X88646Y298972D03*
X88646Y288972D03*
X88646Y278972D03*
X88646Y268972D03*
D18*
X63396Y255972D03*
X63396Y311972D03*
D19*
X170200Y113000D03*
X170200Y67000D03*
X65000Y113000D03*
X65000Y67000D03*
D20*
X71100Y532336D03*
X71100Y513336D03*
X71100Y497336D03*
X80100Y493336D03*
X80100Y485336D03*
X80100Y477336D03*
X71100Y473336D03*
X80100Y469336D03*
X71100Y465336D03*
X80100Y461336D03*
X71100Y457336D03*
X71100Y481336D03*
D21*
X69600Y423336D03*
D20*
X71100Y489336D03*
D21*
X77600Y423336D03*
D20*
X71100Y521336D03*
D21*
X85600Y423336D03*
X93600Y423336D03*
X101600Y423336D03*
X109600Y423336D03*
X117600Y423336D03*
X125600Y423336D03*
X133600Y423336D03*
X105600Y432336D03*
X113600Y432336D03*
X121600Y432336D03*
X129600Y432336D03*
X137600Y432336D03*
X157600Y423336D03*
X141600Y423336D03*
X149600Y423336D03*
X165600Y423336D03*
D20*
X164100Y433336D03*
X164100Y441336D03*
X164100Y449336D03*
X155100Y453336D03*
X155100Y461336D03*
X164100Y457336D03*
X155100Y445336D03*
D21*
X97600Y432336D03*
D20*
X164100Y465336D03*
X155100Y469336D03*
X155100Y477336D03*
X164100Y481336D03*
X155100Y485336D03*
X164100Y489336D03*
X155100Y493336D03*
X164100Y497336D03*
X155100Y501336D03*
X155100Y509336D03*
X164100Y513336D03*
X155100Y517336D03*
X164100Y521336D03*
X155100Y525336D03*
X164100Y532336D03*
D21*
X97600Y489336D03*
X105600Y489336D03*
X113600Y489336D03*
X121600Y489336D03*
X129600Y489336D03*
X137600Y489336D03*
D22*
X96520Y156060D03*
X96520Y169060D03*
X74520Y162560D03*
D10*
X118808Y81725D02*
X118808Y78549D01*
X118808Y81725D02*
X121984Y81725D01*
X121984Y78549D01*
X118808Y78549D01*
X118808Y81565D02*
X121984Y81565D01*
X118808Y72835D02*
X118808Y69659D01*
X118808Y72835D02*
X121984Y72835D01*
X121984Y69659D01*
X118808Y69659D01*
X118808Y72675D02*
X121984Y72675D01*
X129476Y78549D02*
X129476Y81725D01*
X132652Y81725D01*
X132652Y78549D01*
X129476Y78549D01*
X129476Y81565D02*
X132652Y81565D01*
X129476Y72835D02*
X129476Y69659D01*
X129476Y72835D02*
X132652Y72835D01*
X132652Y69659D01*
X129476Y69659D01*
X129476Y72675D02*
X132652Y72675D01*
X71565Y126556D02*
X68389Y126556D01*
X71565Y126556D02*
X71565Y123380D01*
X68389Y123380D01*
X68389Y126556D01*
X68389Y126396D02*
X71565Y126396D01*
X62675Y126556D02*
X59499Y126556D01*
X62675Y126556D02*
X62675Y123380D01*
X59499Y123380D01*
X59499Y126556D01*
X59499Y126396D02*
X62675Y126396D01*
X114872Y278447D02*
X114872Y281623D01*
X114872Y278447D02*
X111696Y278447D01*
X111696Y281623D01*
X114872Y281623D01*
X114872Y281463D02*
X111696Y281463D01*
X114872Y287337D02*
X114872Y290513D01*
X114872Y287337D02*
X111696Y287337D01*
X111696Y290513D01*
X114872Y290513D01*
X114872Y290353D02*
X111696Y290353D01*
X125032Y281623D02*
X125032Y278447D01*
X121856Y278447D01*
X121856Y281623D01*
X125032Y281623D01*
X125032Y281463D02*
X121856Y281463D01*
X125032Y287337D02*
X125032Y290513D01*
X125032Y287337D02*
X121856Y287337D01*
X121856Y290513D01*
X125032Y290513D01*
X125032Y290353D02*
X121856Y290353D01*
X90869Y138620D02*
X87693Y138620D01*
X87693Y141796D01*
X90869Y141796D01*
X90869Y138620D01*
X90869Y141636D02*
X87693Y141636D01*
X96583Y138620D02*
X99759Y138620D01*
X96583Y138620D02*
X96583Y141796D01*
X99759Y141796D01*
X99759Y138620D01*
X99759Y141636D02*
X96583Y141636D01*
D23*
X82702Y225150D03*
X101702Y225150D03*
X82702Y199030D03*
X92202Y199030D03*
X101702Y199030D03*
D24*
X72898Y375112D03*
X72898Y407716D03*
D25*
X195332Y381882D03*
X195332Y396882D03*
X177032Y396882D03*
X177032Y381882D03*
D10*
X175577Y368744D02*
X178753Y368744D01*
X175577Y368744D02*
X175577Y371920D01*
X178753Y371920D01*
X178753Y368744D01*
X178753Y371760D02*
X175577Y371760D01*
X184467Y368744D02*
X187643Y368744D01*
X184467Y368744D02*
X184467Y371920D01*
X187643Y371920D01*
X187643Y368744D01*
X187643Y371760D02*
X184467Y371760D01*
D26*
X138120Y92202D03*
X131120Y92202D03*
X113340Y92202D03*
X120340Y92202D03*
D27*
X46894Y472472D02*
X46894Y477234D01*
X46894Y472472D02*
X40482Y472472D01*
X40482Y477234D01*
X46894Y477234D01*
X46894Y473981D02*
X40482Y473981D01*
X40482Y475490D02*
X46894Y475490D01*
X46894Y476999D02*
X40482Y476999D01*
X46894Y486442D02*
X46894Y491204D01*
X46894Y486442D02*
X40482Y486442D01*
X40482Y491204D01*
X46894Y491204D01*
X46894Y487951D02*
X40482Y487951D01*
X40482Y489460D02*
X46894Y489460D01*
X46894Y490969D02*
X40482Y490969D01*
D10*
X53530Y485331D02*
X53530Y482155D01*
X53530Y485331D02*
X56706Y485331D01*
X56706Y482155D01*
X53530Y482155D01*
X53530Y485171D02*
X56706Y485171D01*
X53530Y476441D02*
X53530Y473265D01*
X53530Y476441D02*
X56706Y476441D01*
X56706Y473265D01*
X53530Y473265D01*
X53530Y476281D02*
X56706Y476281D01*
D27*
X46894Y498888D02*
X46894Y503650D01*
X46894Y498888D02*
X40482Y498888D01*
X40482Y503650D01*
X46894Y503650D01*
X46894Y500397D02*
X40482Y500397D01*
X40482Y501906D02*
X46894Y501906D01*
X46894Y503415D02*
X40482Y503415D01*
X46894Y512858D02*
X46894Y517620D01*
X46894Y512858D02*
X40482Y512858D01*
X40482Y517620D01*
X46894Y517620D01*
X46894Y514367D02*
X40482Y514367D01*
X40482Y515876D02*
X46894Y515876D01*
X46894Y517385D02*
X40482Y517385D01*
D10*
X53784Y511747D02*
X53784Y508571D01*
X53784Y511747D02*
X56960Y511747D01*
X56960Y508571D01*
X53784Y508571D01*
X53784Y511587D02*
X56960Y511587D01*
X53784Y502857D02*
X53784Y499681D01*
X53784Y502857D02*
X56960Y502857D01*
X56960Y499681D01*
X53784Y499681D01*
X53784Y502697D02*
X56960Y502697D01*
M02*
