G04 EAGLE Gerber RS-274X export*
G75*
%MOMM*%
%FSLAX34Y34*%
%LPD*%
%INSoldermask Top*%
%IPPOS*%
%AMOC8*
5,1,8,0,0,1.08239X$1,22.5*%
G01*
%ADD10C,3.101600*%
%ADD11C,0.419859*%
%ADD12C,0.326897*%
%ADD13C,0.297525*%
%ADD14R,1.625600X1.371600*%
%ADD15C,0.142238*%
%ADD16C,0.412750*%
%ADD17C,0.916431*%
%ADD18C,0.260094*%
%ADD19C,0.801600*%
%ADD20R,1.651600X0.701600*%
%ADD21R,1.901600X1.301600*%
%ADD22R,2.101600X0.971600*%
%ADD23R,0.701600X0.501600*%
%ADD24R,0.501600X0.701600*%
%ADD25R,0.901600X0.601600*%
%ADD26R,0.701600X1.301600*%
%ADD27R,1.001600X0.863600*%
%ADD28R,0.801600X0.801600*%
%ADD29R,0.500000X0.800000*%
%ADD30C,0.257809*%
%ADD31R,1.752600X1.752600*%
%ADD32C,1.752600*%


D10*
X20000Y553000D03*
X20000Y20000D03*
X215200Y20000D03*
X215200Y553000D03*
D11*
X132020Y290509D02*
X132020Y287341D01*
X132020Y290509D02*
X135188Y290509D01*
X135188Y287341D01*
X132020Y287341D01*
X132020Y281619D02*
X132020Y278451D01*
X132020Y281619D02*
X135188Y281619D01*
X135188Y278451D01*
X132020Y278451D01*
X62671Y134052D02*
X59503Y134052D01*
X59503Y137220D01*
X62671Y137220D01*
X62671Y134052D01*
X68393Y134052D02*
X71561Y134052D01*
X68393Y134052D02*
X68393Y137220D01*
X71561Y137220D01*
X71561Y134052D01*
D12*
X127237Y388349D02*
X127237Y394987D01*
X133875Y394987D01*
X133875Y388349D01*
X127237Y388349D01*
X127237Y391455D02*
X133875Y391455D01*
X133875Y394561D02*
X127237Y394561D01*
X127237Y379747D02*
X127237Y373109D01*
X127237Y379747D02*
X133875Y379747D01*
X133875Y373109D01*
X127237Y373109D01*
X127237Y376215D02*
X133875Y376215D01*
X133875Y379321D02*
X127237Y379321D01*
X144001Y388349D02*
X144001Y394987D01*
X150639Y394987D01*
X150639Y388349D01*
X144001Y388349D01*
X144001Y391455D02*
X150639Y391455D01*
X150639Y394561D02*
X144001Y394561D01*
X144001Y379747D02*
X144001Y373109D01*
X144001Y379747D02*
X150639Y379747D01*
X150639Y373109D01*
X144001Y373109D01*
X144001Y376215D02*
X150639Y376215D01*
X150639Y379321D02*
X144001Y379321D01*
X160765Y388349D02*
X160765Y394987D01*
X167403Y394987D01*
X167403Y388349D01*
X160765Y388349D01*
X160765Y391455D02*
X167403Y391455D01*
X167403Y394561D02*
X160765Y394561D01*
X160765Y379747D02*
X160765Y373109D01*
X160765Y379747D02*
X167403Y379747D01*
X167403Y373109D01*
X160765Y373109D01*
X160765Y376215D02*
X167403Y376215D01*
X167403Y379321D02*
X160765Y379321D01*
D11*
X79816Y330387D02*
X79816Y327219D01*
X76648Y327219D01*
X76648Y330387D01*
X79816Y330387D01*
X79816Y336109D02*
X79816Y339277D01*
X79816Y336109D02*
X76648Y336109D01*
X76648Y339277D01*
X79816Y339277D01*
X76648Y355413D02*
X76648Y358581D01*
X79816Y358581D01*
X79816Y355413D01*
X76648Y355413D01*
X76648Y349691D02*
X76648Y346523D01*
X76648Y349691D02*
X79816Y349691D01*
X79816Y346523D01*
X76648Y346523D01*
X91253Y183836D02*
X94421Y183836D01*
X91253Y183836D02*
X91253Y187004D01*
X94421Y187004D01*
X94421Y183836D01*
X100143Y183836D02*
X103311Y183836D01*
X100143Y183836D02*
X100143Y187004D01*
X103311Y187004D01*
X103311Y183836D01*
D12*
X101363Y244365D02*
X94725Y244365D01*
X101363Y244365D02*
X101363Y237727D01*
X94725Y237727D01*
X94725Y244365D01*
X94725Y240833D02*
X101363Y240833D01*
X101363Y243939D02*
X94725Y243939D01*
X86123Y244365D02*
X79485Y244365D01*
X86123Y244365D02*
X86123Y237727D01*
X79485Y237727D01*
X79485Y244365D01*
X79485Y240833D02*
X86123Y240833D01*
X86123Y243939D02*
X79485Y243939D01*
D11*
X59496Y394783D02*
X59496Y397951D01*
X59496Y394783D02*
X56328Y394783D01*
X56328Y397951D01*
X59496Y397951D01*
X59496Y403673D02*
X59496Y406841D01*
X59496Y403673D02*
X56328Y403673D01*
X56328Y406841D01*
X59496Y406841D01*
X56328Y388045D02*
X56328Y384877D01*
X56328Y388045D02*
X59496Y388045D01*
X59496Y384877D01*
X56328Y384877D01*
X56328Y379155D02*
X56328Y375987D01*
X56328Y379155D02*
X59496Y379155D01*
X59496Y375987D01*
X56328Y375987D01*
D13*
X114527Y155597D02*
X114527Y147555D01*
X108485Y147555D01*
X108485Y155597D01*
X114527Y155597D01*
X114527Y150381D02*
X108485Y150381D01*
X108485Y153207D02*
X114527Y153207D01*
X114527Y171555D02*
X114527Y179597D01*
X114527Y171555D02*
X108485Y171555D01*
X108485Y179597D01*
X114527Y179597D01*
X114527Y174381D02*
X108485Y174381D01*
X108485Y177207D02*
X114527Y177207D01*
D14*
X95504Y79502D03*
X95504Y104902D03*
D15*
X102563Y35046D02*
X106221Y35046D01*
X102563Y35046D02*
X102563Y48102D01*
X106221Y48102D01*
X106221Y35046D01*
X106221Y36397D02*
X102563Y36397D01*
X102563Y37748D02*
X106221Y37748D01*
X106221Y39099D02*
X102563Y39099D01*
X102563Y40450D02*
X106221Y40450D01*
X106221Y41801D02*
X102563Y41801D01*
X102563Y43152D02*
X106221Y43152D01*
X106221Y44503D02*
X102563Y44503D01*
X102563Y45854D02*
X106221Y45854D01*
X106221Y47205D02*
X102563Y47205D01*
X109167Y35046D02*
X112825Y35046D01*
X109167Y35046D02*
X109167Y48102D01*
X112825Y48102D01*
X112825Y35046D01*
X112825Y36397D02*
X109167Y36397D01*
X109167Y37748D02*
X112825Y37748D01*
X112825Y39099D02*
X109167Y39099D01*
X109167Y40450D02*
X112825Y40450D01*
X112825Y41801D02*
X109167Y41801D01*
X109167Y43152D02*
X112825Y43152D01*
X112825Y44503D02*
X109167Y44503D01*
X109167Y45854D02*
X112825Y45854D01*
X112825Y47205D02*
X109167Y47205D01*
X115771Y35046D02*
X119429Y35046D01*
X115771Y35046D02*
X115771Y48102D01*
X119429Y48102D01*
X119429Y35046D01*
X119429Y36397D02*
X115771Y36397D01*
X115771Y37748D02*
X119429Y37748D01*
X119429Y39099D02*
X115771Y39099D01*
X115771Y40450D02*
X119429Y40450D01*
X119429Y41801D02*
X115771Y41801D01*
X115771Y43152D02*
X119429Y43152D01*
X119429Y44503D02*
X115771Y44503D01*
X115771Y45854D02*
X119429Y45854D01*
X119429Y47205D02*
X115771Y47205D01*
X122375Y35046D02*
X126033Y35046D01*
X122375Y35046D02*
X122375Y48102D01*
X126033Y48102D01*
X126033Y35046D01*
X126033Y36397D02*
X122375Y36397D01*
X122375Y37748D02*
X126033Y37748D01*
X126033Y39099D02*
X122375Y39099D01*
X122375Y40450D02*
X126033Y40450D01*
X126033Y41801D02*
X122375Y41801D01*
X122375Y43152D02*
X126033Y43152D01*
X126033Y44503D02*
X122375Y44503D01*
X122375Y45854D02*
X126033Y45854D01*
X126033Y47205D02*
X122375Y47205D01*
X128979Y35046D02*
X132637Y35046D01*
X128979Y35046D02*
X128979Y48102D01*
X132637Y48102D01*
X132637Y35046D01*
X132637Y36397D02*
X128979Y36397D01*
X128979Y37748D02*
X132637Y37748D01*
X132637Y39099D02*
X128979Y39099D01*
X128979Y40450D02*
X132637Y40450D01*
X132637Y41801D02*
X128979Y41801D01*
X128979Y43152D02*
X132637Y43152D01*
X132637Y44503D02*
X128979Y44503D01*
X128979Y45854D02*
X132637Y45854D01*
X132637Y47205D02*
X128979Y47205D01*
D16*
X91279Y8459D02*
X77881Y8459D01*
X77881Y20841D01*
X91279Y20841D01*
X91279Y8459D01*
X91279Y12381D02*
X77881Y12381D01*
X77881Y16303D02*
X91279Y16303D01*
X91279Y20225D02*
X77881Y20225D01*
X143921Y8459D02*
X157319Y8459D01*
X143921Y8459D02*
X143921Y20841D01*
X157319Y20841D01*
X157319Y8459D01*
X157319Y12381D02*
X143921Y12381D01*
X143921Y16303D02*
X157319Y16303D01*
X157319Y20225D02*
X143921Y20225D01*
D17*
X96254Y40568D02*
X89162Y40568D01*
X89162Y42580D01*
X96254Y42580D01*
X96254Y40568D01*
X138946Y40568D02*
X146038Y40568D01*
X138946Y40568D02*
X138946Y42580D01*
X146038Y42580D01*
X146038Y40568D01*
D18*
X114268Y7822D02*
X100612Y7822D01*
X100612Y21478D01*
X114268Y21478D01*
X114268Y7822D01*
X114268Y10293D02*
X100612Y10293D01*
X100612Y12764D02*
X114268Y12764D01*
X114268Y15235D02*
X100612Y15235D01*
X100612Y17706D02*
X114268Y17706D01*
X114268Y20177D02*
X100612Y20177D01*
X120932Y7822D02*
X134588Y7822D01*
X120932Y7822D02*
X120932Y21478D01*
X134588Y21478D01*
X134588Y7822D01*
X134588Y10293D02*
X120932Y10293D01*
X120932Y12764D02*
X134588Y12764D01*
X134588Y15235D02*
X120932Y15235D01*
X120932Y17706D02*
X134588Y17706D01*
X134588Y20177D02*
X120932Y20177D01*
D19*
X82548Y17190D03*
X82548Y12110D03*
X152652Y17190D03*
X152652Y12110D03*
X91438Y41574D03*
X93978Y41574D03*
X141222Y41574D03*
X143762Y41574D03*
D20*
X88646Y298972D03*
X88646Y288972D03*
X88646Y278972D03*
X88646Y268972D03*
D21*
X63396Y255972D03*
X63396Y311972D03*
D22*
X170200Y113000D03*
X170200Y67000D03*
X65000Y113000D03*
X65000Y67000D03*
D23*
X71100Y532336D03*
X71100Y513336D03*
X71100Y497336D03*
X80100Y493336D03*
X80100Y485336D03*
X80100Y477336D03*
X71100Y473336D03*
X80100Y469336D03*
X71100Y465336D03*
X80100Y461336D03*
X71100Y457336D03*
X71100Y481336D03*
D24*
X69600Y423336D03*
D23*
X71100Y489336D03*
D24*
X77600Y423336D03*
D23*
X71100Y521336D03*
D24*
X85600Y423336D03*
X93600Y423336D03*
X101600Y423336D03*
X109600Y423336D03*
X117600Y423336D03*
X125600Y423336D03*
X133600Y423336D03*
X105600Y432336D03*
X113600Y432336D03*
X121600Y432336D03*
X129600Y432336D03*
X137600Y432336D03*
X157600Y423336D03*
X141600Y423336D03*
X149600Y423336D03*
X165600Y423336D03*
D23*
X164100Y433336D03*
X164100Y441336D03*
X164100Y449336D03*
X155100Y453336D03*
X155100Y461336D03*
X164100Y457336D03*
X155100Y445336D03*
D24*
X97600Y432336D03*
D23*
X164100Y465336D03*
X155100Y469336D03*
X155100Y477336D03*
X164100Y481336D03*
X155100Y485336D03*
X164100Y489336D03*
X155100Y493336D03*
X164100Y497336D03*
X155100Y501336D03*
X155100Y509336D03*
X164100Y513336D03*
X155100Y517336D03*
X164100Y521336D03*
X155100Y525336D03*
X164100Y532336D03*
D24*
X97600Y489336D03*
X105600Y489336D03*
X113600Y489336D03*
X121600Y489336D03*
X129600Y489336D03*
X137600Y489336D03*
D25*
X96520Y156060D03*
X96520Y169060D03*
X74520Y162560D03*
D11*
X118812Y81721D02*
X118812Y78553D01*
X118812Y81721D02*
X121980Y81721D01*
X121980Y78553D01*
X118812Y78553D01*
X118812Y72831D02*
X118812Y69663D01*
X118812Y72831D02*
X121980Y72831D01*
X121980Y69663D01*
X118812Y69663D01*
X129480Y78553D02*
X129480Y81721D01*
X132648Y81721D01*
X132648Y78553D01*
X129480Y78553D01*
X129480Y72831D02*
X129480Y69663D01*
X129480Y72831D02*
X132648Y72831D01*
X132648Y69663D01*
X129480Y69663D01*
X71561Y126552D02*
X68393Y126552D01*
X71561Y126552D02*
X71561Y123384D01*
X68393Y123384D01*
X68393Y126552D01*
X62671Y126552D02*
X59503Y126552D01*
X62671Y126552D02*
X62671Y123384D01*
X59503Y123384D01*
X59503Y126552D01*
X114868Y278451D02*
X114868Y281619D01*
X114868Y278451D02*
X111700Y278451D01*
X111700Y281619D01*
X114868Y281619D01*
X114868Y287341D02*
X114868Y290509D01*
X114868Y287341D02*
X111700Y287341D01*
X111700Y290509D01*
X114868Y290509D01*
X125028Y281619D02*
X125028Y278451D01*
X121860Y278451D01*
X121860Y281619D01*
X125028Y281619D01*
X125028Y287341D02*
X125028Y290509D01*
X125028Y287341D02*
X121860Y287341D01*
X121860Y290509D01*
X125028Y290509D01*
X90865Y138624D02*
X87697Y138624D01*
X87697Y141792D01*
X90865Y141792D01*
X90865Y138624D01*
X96587Y138624D02*
X99755Y138624D01*
X96587Y138624D02*
X96587Y141792D01*
X99755Y141792D01*
X99755Y138624D01*
D26*
X82702Y225150D03*
X101702Y225150D03*
X82702Y199030D03*
X92202Y199030D03*
X101702Y199030D03*
D27*
X72898Y375112D03*
X72898Y407716D03*
D28*
X195332Y381882D03*
X195332Y396882D03*
X177032Y396882D03*
X177032Y381882D03*
D11*
X175581Y368748D02*
X178749Y368748D01*
X175581Y368748D02*
X175581Y371916D01*
X178749Y371916D01*
X178749Y368748D01*
X184471Y368748D02*
X187639Y368748D01*
X184471Y368748D02*
X184471Y371916D01*
X187639Y371916D01*
X187639Y368748D01*
D29*
X138120Y92202D03*
X131120Y92202D03*
X113340Y92202D03*
X120340Y92202D03*
D30*
X46907Y472459D02*
X46907Y477247D01*
X46907Y472459D02*
X40469Y472459D01*
X40469Y477247D01*
X46907Y477247D01*
X46907Y474908D02*
X40469Y474908D01*
X46907Y486429D02*
X46907Y491217D01*
X46907Y486429D02*
X40469Y486429D01*
X40469Y491217D01*
X46907Y491217D01*
X46907Y488878D02*
X40469Y488878D01*
D11*
X53534Y485327D02*
X53534Y482159D01*
X53534Y485327D02*
X56702Y485327D01*
X56702Y482159D01*
X53534Y482159D01*
X53534Y476437D02*
X53534Y473269D01*
X53534Y476437D02*
X56702Y476437D01*
X56702Y473269D01*
X53534Y473269D01*
D30*
X46907Y498875D02*
X46907Y503663D01*
X46907Y498875D02*
X40469Y498875D01*
X40469Y503663D01*
X46907Y503663D01*
X46907Y501324D02*
X40469Y501324D01*
X46907Y512845D02*
X46907Y517633D01*
X46907Y512845D02*
X40469Y512845D01*
X40469Y517633D01*
X46907Y517633D01*
X46907Y515294D02*
X40469Y515294D01*
D11*
X53788Y511743D02*
X53788Y508575D01*
X53788Y511743D02*
X56956Y511743D01*
X56956Y508575D01*
X53788Y508575D01*
X53788Y502853D02*
X53788Y499685D01*
X53788Y502853D02*
X56956Y502853D01*
X56956Y499685D01*
X53788Y499685D01*
D31*
X97790Y339344D03*
D32*
X97790Y364744D03*
D31*
X165354Y254254D03*
D32*
X165354Y228854D03*
X165354Y203454D03*
X165354Y178054D03*
X165354Y152654D03*
D31*
X16000Y513600D03*
D32*
X16000Y488200D03*
X16000Y462800D03*
X16000Y437400D03*
X16000Y412000D03*
X16000Y386600D03*
X16000Y361200D03*
X16000Y335800D03*
X16000Y310400D03*
X16000Y285000D03*
X16000Y259600D03*
X16000Y234200D03*
X16000Y208800D03*
X16000Y183400D03*
X16000Y158000D03*
X16000Y132600D03*
X16000Y107200D03*
X16000Y81800D03*
X16000Y56400D03*
D31*
X219200Y513600D03*
D32*
X219200Y488200D03*
X219200Y462800D03*
X219200Y437400D03*
X219200Y412000D03*
X219200Y386600D03*
X219200Y361200D03*
X219200Y335800D03*
X219200Y310400D03*
X219200Y285000D03*
X219200Y259600D03*
X219200Y234200D03*
X219200Y208800D03*
X219200Y183400D03*
X219200Y158000D03*
X219200Y132600D03*
X219200Y107200D03*
X219200Y81800D03*
X219200Y56400D03*
M02*
